%TF.GenerationSoftware,KiCad,Pcbnew,7.0.9*%
%TF.CreationDate,2023-12-10T21:37:23+08:00*%
%TF.ProjectId,E-Secnt Coach,452d5365-636e-4742-9043-6f6163682e6b,rev?*%
%TF.SameCoordinates,Original*%
%TF.FileFunction,Soldermask,Top*%
%TF.FilePolarity,Negative*%
%FSLAX46Y46*%
G04 Gerber Fmt 4.6, Leading zero omitted, Abs format (unit mm)*
G04 Created by KiCad (PCBNEW 7.0.9) date 2023-12-10 21:37:23*
%MOMM*%
%LPD*%
G01*
G04 APERTURE LIST*
G04 Aperture macros list*
%AMRoundRect*
0 Rectangle with rounded corners*
0 $1 Rounding radius*
0 $2 $3 $4 $5 $6 $7 $8 $9 X,Y pos of 4 corners*
0 Add a 4 corners polygon primitive as box body*
4,1,4,$2,$3,$4,$5,$6,$7,$8,$9,$2,$3,0*
0 Add four circle primitives for the rounded corners*
1,1,$1+$1,$2,$3*
1,1,$1+$1,$4,$5*
1,1,$1+$1,$6,$7*
1,1,$1+$1,$8,$9*
0 Add four rect primitives between the rounded corners*
20,1,$1+$1,$2,$3,$4,$5,0*
20,1,$1+$1,$4,$5,$6,$7,0*
20,1,$1+$1,$6,$7,$8,$9,0*
20,1,$1+$1,$8,$9,$2,$3,0*%
%AMFreePoly0*
4,1,9,3.862500,-0.866500,0.737500,-0.866500,0.737500,-0.450000,-0.737500,-0.450000,-0.737500,0.450000,0.737500,0.450000,0.737500,0.866500,3.862500,0.866500,3.862500,-0.866500,3.862500,-0.866500,$1*%
%AMFreePoly1*
4,1,43,1.015063,3.345106,1.030902,3.345106,1.043715,3.335796,1.058779,3.330902,1.068088,3.318088,1.080902,3.308779,1.085796,3.293715,1.095106,3.280902,1.095106,3.265062,1.100000,3.250000,1.100000,-3.750000,1.095106,-3.765062,1.095106,-3.780902,1.085796,-3.793715,1.080902,-3.808779,1.068088,-3.818088,1.058779,-3.830902,1.043715,-3.835796,1.030902,-3.845106,1.015063,-3.845106,
1.000000,-3.850000,0.000000,-3.850000,-0.016926,-3.844500,-0.034710,-3.843783,-0.045590,-3.835187,-0.058779,-3.830902,-0.069241,-3.816501,-0.083205,-3.805470,-1.583205,-1.555470,-1.591042,-1.527569,-1.600000,-1.500000,-1.600000,1.000000,-1.591042,1.027569,-1.583205,1.055470,-0.083205,3.305470,-0.069241,3.316501,-0.058779,3.330902,-0.045590,3.335187,-0.034710,3.343783,-0.016926,3.344500,
0.000000,3.350000,1.000000,3.350000,1.015063,3.345106,1.015063,3.345106,$1*%
%AMFreePoly2*
4,1,43,0.016926,3.344500,0.034710,3.343783,0.045590,3.335187,0.058779,3.330902,0.069241,3.316501,0.083205,3.305470,1.583205,1.055470,1.591043,1.027566,1.600000,1.000000,1.600000,-1.500000,1.591043,-1.527566,1.583205,-1.555470,0.083205,-3.805470,0.069241,-3.816501,0.058779,-3.830902,0.045590,-3.835187,0.034710,-3.843783,0.016926,-3.844500,0.000000,-3.850000,-1.000000,-3.850000,
-1.015063,-3.845106,-1.030902,-3.845106,-1.043715,-3.835796,-1.058779,-3.830902,-1.068088,-3.818088,-1.080902,-3.808779,-1.085796,-3.793715,-1.095106,-3.780902,-1.095106,-3.765062,-1.100000,-3.750000,-1.100000,3.250000,-1.095106,3.265062,-1.095106,3.280902,-1.085796,3.293715,-1.080902,3.308779,-1.068088,3.318088,-1.058779,3.330902,-1.043715,3.335796,-1.030902,3.345106,-1.015063,3.345106,
-1.000000,3.350000,0.000000,3.350000,0.016926,3.344500,0.016926,3.344500,$1*%
G04 Aperture macros list end*
%ADD10RoundRect,0.250000X0.625000X-0.350000X0.625000X0.350000X-0.625000X0.350000X-0.625000X-0.350000X0*%
%ADD11O,1.750000X1.200000*%
%ADD12R,0.900000X1.300000*%
%ADD13FreePoly0,90.000000*%
%ADD14C,5.600000*%
%ADD15RoundRect,0.200000X0.200000X0.275000X-0.200000X0.275000X-0.200000X-0.275000X0.200000X-0.275000X0*%
%ADD16RoundRect,0.237500X-0.300000X-0.237500X0.300000X-0.237500X0.300000X0.237500X-0.300000X0.237500X0*%
%ADD17RoundRect,0.062500X-0.062500X0.337500X-0.062500X-0.337500X0.062500X-0.337500X0.062500X0.337500X0*%
%ADD18RoundRect,0.062500X-0.337500X0.062500X-0.337500X-0.062500X0.337500X-0.062500X0.337500X0.062500X0*%
%ADD19R,5.300000X5.300000*%
%ADD20RoundRect,0.250000X-0.625000X0.350000X-0.625000X-0.350000X0.625000X-0.350000X0.625000X0.350000X0*%
%ADD21RoundRect,0.250000X-3.500000X0.250000X-3.500000X-0.250000X3.500000X-0.250000X3.500000X0.250000X0*%
%ADD22FreePoly1,270.000000*%
%ADD23FreePoly2,270.000000*%
%ADD24RoundRect,0.218750X-0.256250X0.218750X-0.256250X-0.218750X0.256250X-0.218750X0.256250X0.218750X0*%
%ADD25RoundRect,0.237500X-0.237500X0.300000X-0.237500X-0.300000X0.237500X-0.300000X0.237500X0.300000X0*%
%ADD26C,0.650000*%
%ADD27R,0.600000X1.240000*%
%ADD28R,0.300000X1.240000*%
%ADD29O,1.000000X2.100000*%
%ADD30O,1.000000X1.800000*%
%ADD31RoundRect,0.237500X0.300000X0.237500X-0.300000X0.237500X-0.300000X-0.237500X0.300000X-0.237500X0*%
%ADD32RoundRect,0.150000X0.150000X-0.587500X0.150000X0.587500X-0.150000X0.587500X-0.150000X-0.587500X0*%
%ADD33RoundRect,0.150000X-0.587500X-0.150000X0.587500X-0.150000X0.587500X0.150000X-0.587500X0.150000X0*%
%ADD34RoundRect,0.200000X0.275000X-0.200000X0.275000X0.200000X-0.275000X0.200000X-0.275000X-0.200000X0*%
%ADD35RoundRect,0.200000X-0.200000X-0.275000X0.200000X-0.275000X0.200000X0.275000X-0.200000X0.275000X0*%
%ADD36RoundRect,0.200000X-0.275000X0.200000X-0.275000X-0.200000X0.275000X-0.200000X0.275000X0.200000X0*%
%ADD37R,0.400000X0.650000*%
%ADD38RoundRect,0.150000X0.150000X-0.512500X0.150000X0.512500X-0.150000X0.512500X-0.150000X-0.512500X0*%
%ADD39RoundRect,0.250000X3.500000X-0.250000X3.500000X0.250000X-3.500000X0.250000X-3.500000X-0.250000X0*%
%ADD40FreePoly1,90.000000*%
%ADD41FreePoly2,90.000000*%
%ADD42RoundRect,0.237500X0.237500X-0.300000X0.237500X0.300000X-0.237500X0.300000X-0.237500X-0.300000X0*%
%ADD43RoundRect,0.062500X0.275000X0.062500X-0.275000X0.062500X-0.275000X-0.062500X0.275000X-0.062500X0*%
%ADD44RoundRect,0.062500X0.062500X0.275000X-0.062500X0.275000X-0.062500X-0.275000X0.062500X-0.275000X0*%
%ADD45R,1.900000X1.900000*%
%ADD46RoundRect,0.102000X-0.375000X0.500000X-0.375000X-0.500000X0.375000X-0.500000X0.375000X0.500000X0*%
%ADD47RoundRect,0.112500X-0.112500X0.187500X-0.112500X-0.187500X0.112500X-0.187500X0.112500X0.187500X0*%
%ADD48RoundRect,0.250000X-0.350000X-0.625000X0.350000X-0.625000X0.350000X0.625000X-0.350000X0.625000X0*%
%ADD49O,1.200000X1.750000*%
%ADD50RoundRect,0.102000X0.500000X1.000000X-0.500000X1.000000X-0.500000X-1.000000X0.500000X-1.000000X0*%
G04 APERTURE END LIST*
D10*
%TO.C,J4*%
X165450000Y-84000000D03*
D11*
X165450000Y-82000000D03*
%TD*%
D12*
%TO.C,U3*%
X127200000Y-103780000D03*
D13*
X128700000Y-103692500D03*
D12*
X130200000Y-103780000D03*
%TD*%
D14*
%TO.C,REF\u002A\u002A*%
X167000000Y-104000000D03*
%TD*%
D15*
%TO.C,R10*%
X124395000Y-99410000D03*
X122745000Y-99410000D03*
%TD*%
D16*
%TO.C,C18*%
X156637500Y-86900000D03*
X158362500Y-86900000D03*
%TD*%
D17*
%TO.C,U1*%
X142750000Y-78339000D03*
X142250000Y-78339000D03*
X141750000Y-78339000D03*
X141250000Y-78339000D03*
X140750000Y-78339000D03*
X140250000Y-78339000D03*
X139750000Y-78339000D03*
X139250000Y-78339000D03*
X138750000Y-78339000D03*
X138250000Y-78339000D03*
X137750000Y-78339000D03*
X137250000Y-78339000D03*
D18*
X136550000Y-79039000D03*
X136550000Y-79539000D03*
X136550000Y-80039000D03*
X136550000Y-80539000D03*
X136550000Y-81039000D03*
X136550000Y-81539000D03*
X136550000Y-82039000D03*
X136550000Y-82539000D03*
X136550000Y-83039000D03*
X136550000Y-83539000D03*
X136550000Y-84039000D03*
X136550000Y-84539000D03*
D17*
X137250000Y-85239000D03*
X137750000Y-85239000D03*
X138250000Y-85239000D03*
X138750000Y-85239000D03*
X139250000Y-85239000D03*
X139750000Y-85239000D03*
X140250000Y-85239000D03*
X140750000Y-85239000D03*
X141250000Y-85239000D03*
X141750000Y-85239000D03*
X142250000Y-85239000D03*
X142750000Y-85239000D03*
D18*
X143450000Y-84539000D03*
X143450000Y-84039000D03*
X143450000Y-83539000D03*
X143450000Y-83039000D03*
X143450000Y-82539000D03*
X143450000Y-82039000D03*
X143450000Y-81539000D03*
X143450000Y-81039000D03*
X143450000Y-80539000D03*
X143450000Y-80039000D03*
X143450000Y-79539000D03*
X143450000Y-79039000D03*
D19*
X140000000Y-81789000D03*
%TD*%
D20*
%TO.C,J3*%
X114550000Y-92500000D03*
D11*
X114550000Y-94500000D03*
%TD*%
D16*
%TO.C,C21*%
X146037500Y-82633332D03*
X147762500Y-82633332D03*
%TD*%
%TO.C,C19*%
X146037500Y-79000000D03*
X147762500Y-79000000D03*
%TD*%
D21*
%TO.C,L2*%
X122100000Y-92800000D03*
D22*
X122350000Y-90300000D03*
D23*
X122350000Y-95300000D03*
%TD*%
D14*
%TO.C,REF\u002A\u002A*%
X113000000Y-75000000D03*
%TD*%
D24*
%TO.C,D3*%
X148400000Y-102462500D03*
X148400000Y-104037500D03*
%TD*%
D25*
%TO.C,C20*%
X151200000Y-94237500D03*
X151200000Y-95962500D03*
%TD*%
D26*
%TO.C,J1*%
X137110000Y-100395000D03*
X142890000Y-100395000D03*
D27*
X136800000Y-99275000D03*
X137600000Y-99275000D03*
D28*
X138750000Y-99275000D03*
X139750000Y-99275000D03*
X140250000Y-99275000D03*
X141250000Y-99275000D03*
D27*
X142400000Y-99275000D03*
X143200000Y-99275000D03*
X143200000Y-99275000D03*
X142400000Y-99275000D03*
D28*
X141750000Y-99275000D03*
X140750000Y-99275000D03*
X139250000Y-99275000D03*
X138250000Y-99275000D03*
D27*
X137600000Y-99275000D03*
X136800000Y-99275000D03*
D29*
X135680000Y-99875000D03*
D30*
X135680000Y-104075000D03*
D29*
X144320000Y-99875000D03*
D30*
X144320000Y-104075000D03*
%TD*%
D31*
%TO.C,C22*%
X117092500Y-99420000D03*
X115367500Y-99420000D03*
%TD*%
%TO.C,C6*%
X135862500Y-88675000D03*
X134137500Y-88675000D03*
%TD*%
D32*
%TO.C,Q6*%
X141964285Y-95767500D03*
X143864285Y-95767500D03*
X142914285Y-93892500D03*
%TD*%
D33*
%TO.C,Q2*%
X127762500Y-89400000D03*
X127762500Y-91300000D03*
X129637500Y-90350000D03*
%TD*%
D34*
%TO.C,R2*%
X153650000Y-104075000D03*
X153650000Y-102425000D03*
%TD*%
D16*
%TO.C,C12*%
X146037500Y-84450000D03*
X147762500Y-84450000D03*
%TD*%
D31*
%TO.C,C7*%
X135862500Y-90675000D03*
X134137500Y-90675000D03*
%TD*%
D16*
%TO.C,C11*%
X146037500Y-80816666D03*
X147762500Y-80816666D03*
%TD*%
D35*
%TO.C,R5*%
X127775000Y-79000000D03*
X129425000Y-79000000D03*
%TD*%
D15*
%TO.C,R7*%
X152125000Y-79100000D03*
X150475000Y-79100000D03*
%TD*%
D36*
%TO.C,R3*%
X130900000Y-94445000D03*
X130900000Y-96095000D03*
%TD*%
D33*
%TO.C,Q1*%
X127762500Y-80800000D03*
X127762500Y-82700000D03*
X129637500Y-81750000D03*
%TD*%
D25*
%TO.C,C3*%
X124900000Y-102167500D03*
X124900000Y-103892500D03*
%TD*%
D10*
%TO.C,J5*%
X165500000Y-94500000D03*
D11*
X165500000Y-92500000D03*
%TD*%
D35*
%TO.C,R6*%
X127875000Y-87400000D03*
X129525000Y-87400000D03*
%TD*%
D31*
%TO.C,C17*%
X133812500Y-84450000D03*
X132087500Y-84450000D03*
%TD*%
D33*
%TO.C,Q3*%
X150362500Y-80900000D03*
X150362500Y-82800000D03*
X152237500Y-81850000D03*
%TD*%
D21*
%TO.C,L1*%
X122100000Y-80800000D03*
D22*
X122350000Y-78300000D03*
D23*
X122350000Y-83300000D03*
%TD*%
D37*
%TO.C,Q5*%
X134170000Y-94330000D03*
X133520000Y-94330000D03*
X132870000Y-94330000D03*
X132870000Y-96230000D03*
X133520000Y-96230000D03*
X134170000Y-96230000D03*
%TD*%
D31*
%TO.C,C16*%
X122962500Y-75000000D03*
X121237500Y-75000000D03*
%TD*%
D33*
%TO.C,Q4*%
X150362500Y-89200000D03*
X150362500Y-91100000D03*
X152237500Y-90150000D03*
%TD*%
D31*
%TO.C,C14*%
X133762500Y-79000000D03*
X132037500Y-79000000D03*
%TD*%
D38*
%TO.C,U4*%
X147450000Y-95837500D03*
X148400000Y-95837500D03*
X149350000Y-95837500D03*
X149350000Y-93562500D03*
X147450000Y-93562500D03*
%TD*%
D39*
%TO.C,L4*%
X157450000Y-92800000D03*
D40*
X157200000Y-95300000D03*
D41*
X157200000Y-90300000D03*
%TD*%
D25*
%TO.C,C4*%
X140171428Y-94237500D03*
X140171428Y-95962500D03*
%TD*%
D14*
%TO.C,REF\u002A\u002A*%
X167000000Y-75000000D03*
%TD*%
D42*
%TO.C,C5*%
X145657142Y-95962500D03*
X145657142Y-94237500D03*
%TD*%
D43*
%TO.C,U2*%
X141512500Y-90275000D03*
X141512500Y-89775000D03*
X141512500Y-89275000D03*
X141512500Y-88775000D03*
D44*
X140750000Y-88012500D03*
X140250000Y-88012500D03*
X139750000Y-88012500D03*
X139250000Y-88012500D03*
D43*
X138487500Y-88775000D03*
X138487500Y-89275000D03*
X138487500Y-89775000D03*
X138487500Y-90275000D03*
D44*
X139250000Y-91037500D03*
X139750000Y-91037500D03*
X140250000Y-91037500D03*
X140750000Y-91037500D03*
D45*
X140000000Y-89525000D03*
%TD*%
D16*
%TO.C,C8*%
X144137500Y-88675000D03*
X145862500Y-88675000D03*
%TD*%
D15*
%TO.C,R8*%
X152125000Y-87400000D03*
X150475000Y-87400000D03*
%TD*%
D31*
%TO.C,C15*%
X123062500Y-86800000D03*
X121337500Y-86800000D03*
%TD*%
D46*
%TO.C,KEY1*%
X118935200Y-99408600D03*
X118935200Y-103908600D03*
X121085200Y-99408600D03*
X121085200Y-103908600D03*
%TD*%
D31*
%TO.C,C10*%
X133762500Y-82633332D03*
X132037500Y-82633332D03*
%TD*%
%TO.C,C13*%
X133762500Y-80816666D03*
X132037500Y-80816666D03*
%TD*%
D39*
%TO.C,L3*%
X157500000Y-80800000D03*
D40*
X157250000Y-83300000D03*
D41*
X157250000Y-78300000D03*
%TD*%
D16*
%TO.C,C9*%
X144137500Y-90675000D03*
X145862500Y-90675000D03*
%TD*%
D34*
%TO.C,R1*%
X151850000Y-104075000D03*
X151850000Y-102425000D03*
%TD*%
D36*
%TO.C,R4*%
X136185714Y-94445000D03*
X136185714Y-96095000D03*
%TD*%
D20*
%TO.C,J2*%
X114550000Y-82000000D03*
D11*
X114550000Y-84000000D03*
%TD*%
D34*
%TO.C,R9*%
X146775000Y-104075000D03*
X146775000Y-102425000D03*
%TD*%
D25*
%TO.C,C2*%
X123107143Y-102167500D03*
X123107143Y-103892500D03*
%TD*%
D24*
%TO.C,D2*%
X150125000Y-102462500D03*
X150125000Y-104037500D03*
%TD*%
D47*
%TO.C,D1*%
X138178571Y-94055000D03*
X138178571Y-96155000D03*
%TD*%
D48*
%TO.C,J6*%
X157500000Y-101500000D03*
D49*
X159500000Y-101500000D03*
%TD*%
D42*
%TO.C,C1*%
X132400000Y-103892500D03*
X132400000Y-102167500D03*
%TD*%
D14*
%TO.C,REF\u002A\u002A*%
X113000000Y-104000000D03*
%TD*%
D50*
%TO.C,E1*%
X142600000Y-74000000D03*
X137400000Y-74000000D03*
%TD*%
M02*
