M48
; DRILL file {KiCad 7.0.9} date Sun Dec 10 21:37:23 2023
; FORMAT={-:-/ absolute / inch / decimal}
; #@! TF.CreationDate,2023-12-10T21:37:23+08:00
; #@! TF.GenerationSoftware,Kicad,Pcbnew,7.0.9
; #@! TF.FileFunction,Plated,1,4,PTH
FMAT,2
INCH
; #@! TA.AperFunction,Plated,PTH,ViaDrill
T1C0.0118
; #@! TA.AperFunction,Plated,PTH,ComponentDrill
T2C0.0236
; #@! TA.AperFunction,Plated,PTH,ComponentDrill
T3C0.0295
; #@! TA.AperFunction,Plated,PTH,ComponentDrill
T4C0.1260
%
G90
G05
T1
X4.3878Y-3.8984
X4.3878Y-3.922
X4.4114Y-3.8984
X4.4114Y-3.922
X4.7018Y-3.4173
X4.7303Y-3.4173
X4.7736Y-2.8898
X4.7736Y-2.9133
X4.8268Y-3.9646
X4.8524Y-3.9646
X4.878Y-3.9646
X4.9045Y-3.9646
X4.9311Y-3.9646
X5.0232Y-2.9602
X5.0232Y-2.9839
X5.0469Y-2.9602
X5.0469Y-2.9839
X5.1106Y-4.1661
X5.139Y-4.1661
X5.1453Y-3.1472
X5.1453Y-3.1705
X5.1558Y-3.2183
X5.1606Y-3.3902
X5.1606Y-3.4138
X5.1661Y-4.1661
X5.1843Y-3.3902
X5.1843Y-3.4138
X5.1969Y-2.874
X5.1969Y-2.9134
X5.1969Y-2.9528
X5.1969Y-2.9921
X5.1969Y-3.0315
X5.2299Y-3.5898
X5.2299Y-3.6736
X5.2362Y-3.0315
X5.2667Y-3.1594
X5.2756Y-3.0315
X5.2823Y-3.8677
X5.315Y-3.0315
X5.3201Y-3.111
X5.3543Y-3.0315
X5.3543Y-3.586
X5.3835Y-3.4154
X5.3835Y-3.439
X5.3937Y-3.0315
X5.4071Y-3.4154
X5.4071Y-3.439
X5.4331Y-3.0315
X5.4532Y-3.0512
X5.4668Y-3.1783
X5.4668Y-3.2233
X5.4668Y-3.2683
X5.4724Y-3.0315
X5.4818Y-3.4402
X5.4823Y-3.9862
X5.502Y-3.8484
X5.5024Y-3.4211
X5.5118Y-3.0315
X5.5118Y-3.1783
X5.5118Y-3.2233
X5.5118Y-3.2683
X5.5223Y-3.4401
X5.5276Y-3.6209
X5.5366Y-3.502
X5.5366Y-3.526
X5.5504Y-3.7772
X5.5587Y-3.6209
X5.561Y-3.0492
X5.5618Y-3.1783
X5.5618Y-3.2233
X5.5618Y-3.2683
X5.5646Y-3.4313
X5.5848Y-3.4603
X5.6299Y-3.0315
X5.6575Y-3.0657
X5.6693Y-3.0315
X5.6744Y-3.448
X5.6827Y-3.8236
X5.6835Y-3.2791
X5.6839Y-3.2496
X5.7043Y-3.111
X5.7087Y-3.0315
X5.713Y-3.8236
X5.7449Y-3.824
X5.748Y-3.0315
X5.749Y-3.1575
X5.7496Y-3.778
X5.7726Y-3.3278
X5.7785Y-3.9933
X5.7874Y-3.0315
X5.8031Y-3.3976
X5.8031Y-3.4213
X5.8268Y-2.874
X5.8268Y-2.9134
X5.8268Y-2.9528
X5.8268Y-2.9921
X5.8268Y-3.0315
X5.8268Y-3.3976
X5.8268Y-3.4213
X5.835Y-3.6835
X5.8413Y-3.8768
X5.8657Y-3.1504
X5.8799Y-3.8723
X5.8799Y-3.8979
X5.9783Y-3.9835
X5.9921Y-3.3465
X5.9921Y-3.3701
X6.0091Y-3.8193
X6.0157Y-3.3465
X6.0157Y-3.3701
X6.2778Y-3.4213
X6.3051Y-3.4213
X6.4638Y-3.9039
X6.4638Y-3.9276
X6.4874Y-3.9039
X6.4874Y-3.9276
T3
X4.5098Y-3.2283
X4.5098Y-3.3071
X4.5098Y-3.6417
X4.5098Y-3.7205
X6.2008Y-3.9961
X6.2795Y-3.9961
X6.5138Y-3.2283
X6.5138Y-3.3071
X6.5157Y-3.6417
X6.5157Y-3.7205
T4
X4.4488Y-2.9528
X4.4488Y-4.0945
X6.5748Y-2.9528
X6.5748Y-4.0945
T2
G00X5.3417Y-3.9104
M15
G01X5.3417Y-3.9537
M16
G05
G00X5.3417Y-4.0817
M15
G01X5.3417Y-4.1132
M16
G05
G00X5.6819Y-3.9104
M15
G01X5.6819Y-3.9537
M16
G05
G00X5.6819Y-4.0817
M15
G01X5.6819Y-4.1132
M16
G05
T0
M30
