%TF.GenerationSoftware,KiCad,Pcbnew,7.0.9*%
%TF.CreationDate,2023-12-10T21:37:23+08:00*%
%TF.ProjectId,E-Secnt Coach,452d5365-636e-4742-9043-6f6163682e6b,rev?*%
%TF.SameCoordinates,Original*%
%TF.FileFunction,Copper,L4,Bot*%
%TF.FilePolarity,Positive*%
%FSLAX46Y46*%
G04 Gerber Fmt 4.6, Leading zero omitted, Abs format (unit mm)*
G04 Created by KiCad (PCBNEW 7.0.9) date 2023-12-10 21:37:23*
%MOMM*%
%LPD*%
G01*
G04 APERTURE LIST*
G04 Aperture macros list*
%AMRoundRect*
0 Rectangle with rounded corners*
0 $1 Rounding radius*
0 $2 $3 $4 $5 $6 $7 $8 $9 X,Y pos of 4 corners*
0 Add a 4 corners polygon primitive as box body*
4,1,4,$2,$3,$4,$5,$6,$7,$8,$9,$2,$3,0*
0 Add four circle primitives for the rounded corners*
1,1,$1+$1,$2,$3*
1,1,$1+$1,$4,$5*
1,1,$1+$1,$6,$7*
1,1,$1+$1,$8,$9*
0 Add four rect primitives between the rounded corners*
20,1,$1+$1,$2,$3,$4,$5,0*
20,1,$1+$1,$4,$5,$6,$7,0*
20,1,$1+$1,$6,$7,$8,$9,0*
20,1,$1+$1,$8,$9,$2,$3,0*%
G04 Aperture macros list end*
%TA.AperFunction,ComponentPad*%
%ADD10RoundRect,0.250000X0.625000X-0.350000X0.625000X0.350000X-0.625000X0.350000X-0.625000X-0.350000X0*%
%TD*%
%TA.AperFunction,ComponentPad*%
%ADD11O,1.750000X1.200000*%
%TD*%
%TA.AperFunction,ComponentPad*%
%ADD12C,5.600000*%
%TD*%
%TA.AperFunction,ComponentPad*%
%ADD13RoundRect,0.250000X-0.625000X0.350000X-0.625000X-0.350000X0.625000X-0.350000X0.625000X0.350000X0*%
%TD*%
%TA.AperFunction,ComponentPad*%
%ADD14O,1.000000X2.100000*%
%TD*%
%TA.AperFunction,ComponentPad*%
%ADD15O,1.000000X1.800000*%
%TD*%
%TA.AperFunction,ComponentPad*%
%ADD16RoundRect,0.250000X-0.350000X-0.625000X0.350000X-0.625000X0.350000X0.625000X-0.350000X0.625000X0*%
%TD*%
%TA.AperFunction,ComponentPad*%
%ADD17O,1.200000X1.750000*%
%TD*%
%TA.AperFunction,ViaPad*%
%ADD18C,0.500000*%
%TD*%
%TA.AperFunction,Conductor*%
%ADD19C,0.127000*%
%TD*%
%TA.AperFunction,Conductor*%
%ADD20C,0.254000*%
%TD*%
%TA.AperFunction,Conductor*%
%ADD21C,1.016000*%
%TD*%
G04 APERTURE END LIST*
D10*
%TO.P,J4,1,Pin_1*%
%TO.N,Net-(J4-Pin_1)*%
X165450000Y-84000000D03*
D11*
%TO.P,J4,2,Pin_2*%
%TO.N,Net-(J4-Pin_2)*%
X165450000Y-82000000D03*
%TD*%
D12*
%TO.P,REF\u002A\u002A,1*%
%TO.N,GND*%
X167000000Y-104000000D03*
%TD*%
D13*
%TO.P,J3,1,Pin_1*%
%TO.N,Net-(J3-Pin_1)*%
X114550000Y-92500000D03*
D11*
%TO.P,J3,2,Pin_2*%
%TO.N,Net-(J3-Pin_2)*%
X114550000Y-94500000D03*
%TD*%
D12*
%TO.P,REF\u002A\u002A,1*%
%TO.N,GND*%
X113000000Y-75000000D03*
%TD*%
D14*
%TO.P,J1,S1,SHIELD*%
%TO.N,GND*%
X135680000Y-99875000D03*
D15*
X135680000Y-104075000D03*
D14*
X144320000Y-99875000D03*
D15*
X144320000Y-104075000D03*
%TD*%
D10*
%TO.P,J5,1,Pin_1*%
%TO.N,Net-(J5-Pin_1)*%
X165500000Y-94500000D03*
D11*
%TO.P,J5,2,Pin_2*%
%TO.N,Net-(J5-Pin_2)*%
X165500000Y-92500000D03*
%TD*%
D12*
%TO.P,REF\u002A\u002A,1*%
%TO.N,GND*%
X167000000Y-75000000D03*
%TD*%
D13*
%TO.P,J2,1,Pin_1*%
%TO.N,Net-(J2-Pin_1)*%
X114550000Y-82000000D03*
D11*
%TO.P,J2,2,Pin_2*%
%TO.N,Net-(J2-Pin_2)*%
X114550000Y-84000000D03*
%TD*%
D16*
%TO.P,J6,1,Pin_1*%
%TO.N,+BATT*%
X157500000Y-101500000D03*
D17*
%TO.P,J6,2,Pin_2*%
%TO.N,GND*%
X159500000Y-101500000D03*
%TD*%
D12*
%TO.P,REF\u002A\u002A,1*%
%TO.N,GND*%
X113000000Y-104000000D03*
%TD*%
D18*
%TO.N,GND*%
X148990000Y-80020000D03*
X147000000Y-77000000D03*
X144000000Y-77000000D03*
X132000000Y-74000000D03*
X152200000Y-85600000D03*
X127590000Y-75790000D03*
X140000000Y-81872000D03*
X138857000Y-83015000D03*
X133000000Y-77000000D03*
X136740000Y-86750000D03*
X136740000Y-87350000D03*
X130957600Y-81745000D03*
X143000000Y-77000000D03*
X140000000Y-83015000D03*
X148000000Y-77000000D03*
X152200000Y-85000000D03*
X128190000Y-75790000D03*
X140000000Y-77000000D03*
X148000000Y-86900000D03*
X132000000Y-76000000D03*
X128190000Y-75190000D03*
X138000000Y-77000000D03*
X140000000Y-80729000D03*
X112050000Y-99620000D03*
X138857000Y-80729000D03*
X164780000Y-99160000D03*
X132000000Y-73000000D03*
X131680000Y-86110000D03*
X164180000Y-99760000D03*
X137000000Y-77000000D03*
X141270000Y-83015000D03*
X137340000Y-87350000D03*
X137340000Y-86750000D03*
X148000000Y-76000000D03*
X147400000Y-86300000D03*
X111450000Y-99020000D03*
X164180000Y-99160000D03*
X148370000Y-98470000D03*
X140630000Y-89560000D03*
X152800000Y-85600000D03*
X148000000Y-75000000D03*
X134000000Y-77000000D03*
X130690000Y-80530000D03*
X145000000Y-77000000D03*
X140980000Y-95940000D03*
X152800000Y-85000000D03*
X148000000Y-74000000D03*
X136000000Y-77000000D03*
X140630000Y-88950000D03*
X132000000Y-75000000D03*
X131080000Y-86710000D03*
X130690000Y-79940000D03*
X131080000Y-86110000D03*
X127590000Y-75190000D03*
X148000000Y-86300000D03*
X148000000Y-73000000D03*
X138857000Y-81872000D03*
X146000000Y-77000000D03*
X147400000Y-86900000D03*
X112050000Y-99020000D03*
X139000000Y-77000000D03*
X131680000Y-86710000D03*
X141270000Y-80729000D03*
X164780000Y-99760000D03*
X111450000Y-99620000D03*
X132000000Y-77000000D03*
X135000000Y-77000000D03*
X141270000Y-81872000D03*
X146040000Y-95960000D03*
%TO.N,/D+*%
X139750000Y-97750000D03*
X139760000Y-86895000D03*
%TO.N,/D-*%
X139250000Y-101250000D03*
X139237000Y-87381031D03*
%TO.N,+3V3*%
X125250000Y-100700000D03*
X141250000Y-77450000D03*
X140266057Y-87377918D03*
X146775000Y-101430000D03*
X122600000Y-100700000D03*
X146025000Y-80200000D03*
X123250000Y-100700000D03*
X144130000Y-87580000D03*
X133775000Y-80250000D03*
X124575000Y-100700000D03*
X123900000Y-100700000D03*
X143700000Y-77870000D03*
X136000000Y-91085000D03*
X146625000Y-84525000D03*
%TO.N,PWM_3*%
X135130000Y-79020000D03*
X144890000Y-79020000D03*
%TO.N,/IO0*%
X132840000Y-91180000D03*
X132840000Y-93310000D03*
%TO.N,/EN*%
X134170000Y-98240000D03*
X138510724Y-77499912D03*
%TO.N,/TX*%
X141852955Y-87891811D03*
X144360000Y-83290000D03*
%TO.N,/RX*%
X141340000Y-87155000D03*
X144370000Y-82540000D03*
%TO.N,+BATT*%
X149350000Y-99007003D03*
X149350000Y-98357500D03*
%TO.N,Net-(U4-PROG)*%
X148210000Y-93560000D03*
X151850000Y-101180000D03*
%TO.N,VCC*%
X120150000Y-86800000D03*
X121250000Y-73400000D03*
X131220000Y-105820000D03*
X144340000Y-97120000D03*
X145110000Y-97120000D03*
X145920000Y-97130000D03*
X141190000Y-91970000D03*
X121250000Y-73998000D03*
X129810000Y-105820000D03*
X119425000Y-86800000D03*
X160149503Y-86900000D03*
X140400000Y-91970000D03*
X159456400Y-86901200D03*
X130530000Y-105820000D03*
X152630000Y-97010000D03*
%TD*%
D19*
%TO.N,/D+*%
X139750000Y-86905000D02*
X139760000Y-86895000D01*
X139750000Y-97750000D02*
X139750000Y-86905000D01*
%TO.N,/D-*%
X139237000Y-101237000D02*
X139250000Y-101250000D01*
X139237000Y-87381031D02*
X139237000Y-101237000D01*
%TO.N,PWM_3*%
X135130000Y-79020000D02*
X144890000Y-79020000D01*
%TO.N,/IO0*%
X132840000Y-91180000D02*
X132840000Y-93310000D01*
%TO.N,/EN*%
X134170000Y-98240000D02*
X134616500Y-97793500D01*
X135146500Y-77513500D02*
X138497136Y-77513500D01*
X134616500Y-78043500D02*
X135146500Y-77513500D01*
X138497136Y-77513500D02*
X138510724Y-77499912D01*
X134616500Y-97793500D02*
X134616500Y-78043500D01*
%TO.N,/TX*%
X143100000Y-83290000D02*
X144360000Y-83290000D01*
X142159000Y-84231000D02*
X143100000Y-83290000D01*
X142159000Y-87585766D02*
X142159000Y-84231000D01*
X141852955Y-87891811D02*
X142159000Y-87585766D01*
%TO.N,/RX*%
X142870000Y-82540000D02*
X144370000Y-82540000D01*
X141340000Y-87155000D02*
X141340000Y-84070000D01*
X141340000Y-84070000D02*
X142870000Y-82540000D01*
D20*
%TO.N,+BATT*%
X157500000Y-99960000D02*
X157500000Y-101500000D01*
X157230000Y-99690000D02*
X157500000Y-99960000D01*
X149620000Y-99690000D02*
X157230000Y-99690000D01*
X149350000Y-98357500D02*
X149350000Y-99420000D01*
X149350000Y-99420000D02*
X149620000Y-99690000D01*
D21*
%TO.N,VCC*%
X158500000Y-86900000D02*
X160149503Y-86900000D01*
X157000000Y-97000000D02*
X157600000Y-96400000D01*
X119135000Y-73400000D02*
X121250000Y-73400000D01*
X117425000Y-75110000D02*
X119135000Y-73400000D01*
X152620000Y-97000000D02*
X152630000Y-97010000D01*
X144050000Y-97000000D02*
X144050000Y-93020000D01*
X121600000Y-104170000D02*
X123230000Y-105800000D01*
X117425000Y-86075000D02*
X117425000Y-75110000D01*
X120150000Y-86800000D02*
X120800000Y-86800000D01*
X121250000Y-73400000D02*
X121250000Y-73998000D01*
X157600000Y-96400000D02*
X157600000Y-87800000D01*
X152630000Y-97010000D02*
X152640000Y-97000000D01*
X120150000Y-86800000D02*
X118150000Y-86800000D01*
X139700000Y-105800000D02*
X141807000Y-103693000D01*
X144050000Y-97000000D02*
X152620000Y-97000000D01*
X152640000Y-97000000D02*
X157000000Y-97000000D01*
X157600000Y-87800000D02*
X158500000Y-86900000D01*
X141807000Y-99243000D02*
X144050000Y-97000000D01*
X141807000Y-103693000D02*
X141807000Y-99243000D01*
X123230000Y-105800000D02*
X139700000Y-105800000D01*
X118150000Y-86800000D02*
X117425000Y-86075000D01*
X120800000Y-86800000D02*
X121600000Y-87600000D01*
X143000000Y-91970000D02*
X140521500Y-91970000D01*
X121600000Y-87600000D02*
X121600000Y-104170000D01*
X144050000Y-93020000D02*
X143000000Y-91970000D01*
%TD*%
%TA.AperFunction,Conductor*%
%TO.N,GND*%
G36*
X116314906Y-75914380D02*
G01*
X116376757Y-75950837D01*
X116412092Y-76013336D01*
X116416500Y-76048024D01*
X116416500Y-86022043D01*
X116416166Y-86028844D01*
X116411620Y-86074999D01*
X116411620Y-86075001D01*
X116431091Y-86272704D01*
X116431092Y-86272707D01*
X116488050Y-86460468D01*
X116488759Y-86462805D01*
X116515159Y-86512196D01*
X116582405Y-86638004D01*
X116621234Y-86685317D01*
X116708427Y-86791563D01*
X116708429Y-86791565D01*
X116708432Y-86791568D01*
X116744283Y-86820990D01*
X116749328Y-86825563D01*
X117399440Y-87475674D01*
X117404004Y-87480710D01*
X117433432Y-87516568D01*
X117586996Y-87642595D01*
X117639418Y-87670615D01*
X117762191Y-87736239D01*
X117762202Y-87736243D01*
X117792643Y-87745478D01*
X117952292Y-87793907D01*
X117952295Y-87793908D01*
X117952296Y-87793908D01*
X117952299Y-87793909D01*
X118100450Y-87808500D01*
X118149998Y-87813380D01*
X118150000Y-87813380D01*
X118150001Y-87813380D01*
X118162584Y-87812140D01*
X118196161Y-87808833D01*
X118202957Y-87808500D01*
X120100453Y-87808500D01*
X120324814Y-87808500D01*
X120394164Y-87827082D01*
X120422890Y-87849124D01*
X120550876Y-87977110D01*
X120586774Y-88039288D01*
X120591500Y-88075186D01*
X120591500Y-104117043D01*
X120591166Y-104123844D01*
X120586620Y-104169999D01*
X120586620Y-104170001D01*
X120606090Y-104367696D01*
X120606090Y-104367697D01*
X120606091Y-104367701D01*
X120644998Y-104495956D01*
X120647046Y-104502708D01*
X120663758Y-104557803D01*
X120663760Y-104557808D01*
X120729400Y-104680610D01*
X120757405Y-104733004D01*
X120795067Y-104778895D01*
X120883427Y-104886563D01*
X120883429Y-104886565D01*
X120883432Y-104886568D01*
X120919283Y-104915990D01*
X120924328Y-104920563D01*
X122479440Y-106475674D01*
X122484004Y-106480710D01*
X122505002Y-106506296D01*
X122513431Y-106516567D01*
X122513433Y-106516569D01*
X122540970Y-106539167D01*
X122666996Y-106642595D01*
X122750496Y-106687226D01*
X122846380Y-106738478D01*
X122898781Y-106787557D01*
X122919623Y-106856262D01*
X122903319Y-106926183D01*
X122854240Y-106978584D01*
X122785535Y-106999426D01*
X122780997Y-106999500D01*
X114915229Y-106999500D01*
X114845879Y-106980918D01*
X114795111Y-106930150D01*
X114776529Y-106860800D01*
X114795111Y-106791450D01*
X114843720Y-106741955D01*
X114854630Y-106735390D01*
X114854643Y-106735381D01*
X115139505Y-106518836D01*
X115152742Y-106506296D01*
X113944180Y-105297733D01*
X114134870Y-105134870D01*
X114297733Y-104944180D01*
X115503556Y-106150003D01*
X115503557Y-106150003D01*
X115630960Y-106000014D01*
X115630974Y-105999996D01*
X115831780Y-105703830D01*
X115831782Y-105703826D01*
X115999390Y-105387684D01*
X115999401Y-105387659D01*
X116131849Y-105055243D01*
X116227579Y-104710457D01*
X116227581Y-104710448D01*
X116285473Y-104357323D01*
X116304846Y-104000000D01*
X116285473Y-103642676D01*
X116227581Y-103289551D01*
X116227579Y-103289542D01*
X116131849Y-102944756D01*
X115999401Y-102612340D01*
X115999390Y-102612315D01*
X115831782Y-102296173D01*
X115831780Y-102296169D01*
X115630974Y-102000003D01*
X115630969Y-101999996D01*
X115503556Y-101849996D01*
X114297733Y-103055819D01*
X114134870Y-102865130D01*
X113944178Y-102702265D01*
X115152742Y-101493702D01*
X115139519Y-101481176D01*
X114854634Y-101264612D01*
X114854628Y-101264608D01*
X114548022Y-101080130D01*
X114223246Y-100929872D01*
X113884127Y-100815611D01*
X113534664Y-100738688D01*
X113178919Y-100700000D01*
X112821081Y-100700000D01*
X112465335Y-100738688D01*
X112115872Y-100815611D01*
X111776753Y-100929872D01*
X111451977Y-101080130D01*
X111145371Y-101264608D01*
X111145365Y-101264612D01*
X110860491Y-101481167D01*
X110847256Y-101493702D01*
X112055820Y-102702266D01*
X111865130Y-102865130D01*
X111702266Y-103055819D01*
X110496441Y-101849995D01*
X110369038Y-101999986D01*
X110369025Y-102000003D01*
X110254000Y-102169653D01*
X110199702Y-102216625D01*
X110129192Y-102230154D01*
X110061363Y-102206616D01*
X110014391Y-102152318D01*
X110000500Y-102091816D01*
X110000500Y-94447392D01*
X113170746Y-94447392D01*
X113180745Y-94657325D01*
X113180746Y-94657333D01*
X113230294Y-94861571D01*
X113230295Y-94861574D01*
X113230296Y-94861576D01*
X113317604Y-95052753D01*
X113380626Y-95141255D01*
X113439516Y-95223955D01*
X113591623Y-95368987D01*
X113671932Y-95420598D01*
X113768428Y-95482613D01*
X113963543Y-95560725D01*
X113963546Y-95560726D01*
X114169909Y-95600499D01*
X114169915Y-95600500D01*
X114877427Y-95600500D01*
X114940142Y-95594511D01*
X115034218Y-95585528D01*
X115235875Y-95526316D01*
X115422682Y-95430011D01*
X115587886Y-95300092D01*
X115587888Y-95300089D01*
X115587890Y-95300088D01*
X115701189Y-95169334D01*
X115725519Y-95141256D01*
X115830604Y-94959244D01*
X115899344Y-94760633D01*
X115929254Y-94552602D01*
X115919254Y-94342670D01*
X115869704Y-94138424D01*
X115782396Y-93947247D01*
X115660486Y-93776048D01*
X115660485Y-93776047D01*
X115660483Y-93776044D01*
X115571707Y-93691398D01*
X115534339Y-93630092D01*
X115532630Y-93558316D01*
X115567037Y-93495302D01*
X115594599Y-93472970D01*
X115643656Y-93442712D01*
X115767712Y-93318656D01*
X115859814Y-93169334D01*
X115914999Y-93002797D01*
X115925500Y-92900009D01*
X115925499Y-92099992D01*
X115914999Y-91997203D01*
X115859814Y-91830666D01*
X115767712Y-91681344D01*
X115643656Y-91557288D01*
X115572468Y-91513379D01*
X115494333Y-91465185D01*
X115327797Y-91410001D01*
X115327801Y-91410001D01*
X115225009Y-91399500D01*
X113874996Y-91399500D01*
X113874984Y-91399501D01*
X113772201Y-91410001D01*
X113605666Y-91465186D01*
X113456345Y-91557287D01*
X113332287Y-91681345D01*
X113240185Y-91830666D01*
X113185001Y-91997200D01*
X113174500Y-92099985D01*
X113174500Y-92900003D01*
X113174501Y-92900015D01*
X113185001Y-93002798D01*
X113199524Y-93046625D01*
X113240186Y-93169334D01*
X113332288Y-93318656D01*
X113456344Y-93442712D01*
X113501821Y-93470762D01*
X113551091Y-93522985D01*
X113567648Y-93592846D01*
X113547057Y-93661626D01*
X113514757Y-93697828D01*
X113512116Y-93699905D01*
X113512109Y-93699911D01*
X113374486Y-93858737D01*
X113374480Y-93858744D01*
X113269394Y-94040758D01*
X113200655Y-94239367D01*
X113170746Y-94447392D01*
X110000500Y-94447392D01*
X110000500Y-83947398D01*
X113170746Y-83947398D01*
X113171951Y-83972690D01*
X113180745Y-84157325D01*
X113180746Y-84157333D01*
X113230294Y-84361571D01*
X113230295Y-84361574D01*
X113230296Y-84361576D01*
X113317604Y-84552753D01*
X113380626Y-84641255D01*
X113439516Y-84723955D01*
X113591623Y-84868987D01*
X113671932Y-84920598D01*
X113768428Y-84982613D01*
X113963543Y-85060725D01*
X113963546Y-85060726D01*
X114169909Y-85100499D01*
X114169915Y-85100500D01*
X114877427Y-85100500D01*
X114940142Y-85094511D01*
X115034218Y-85085528D01*
X115235875Y-85026316D01*
X115422682Y-84930011D01*
X115587886Y-84800092D01*
X115587888Y-84800089D01*
X115587890Y-84800088D01*
X115680631Y-84693059D01*
X115725519Y-84641256D01*
X115830604Y-84459244D01*
X115899344Y-84260633D01*
X115926753Y-84069999D01*
X115929254Y-84052605D01*
X115929254Y-84052602D01*
X115922556Y-83911982D01*
X115919254Y-83842670D01*
X115869704Y-83638424D01*
X115782396Y-83447247D01*
X115660486Y-83276048D01*
X115660485Y-83276047D01*
X115660483Y-83276044D01*
X115571707Y-83191398D01*
X115534339Y-83130092D01*
X115532630Y-83058316D01*
X115567037Y-82995302D01*
X115594599Y-82972970D01*
X115643656Y-82942712D01*
X115767712Y-82818656D01*
X115859814Y-82669334D01*
X115914999Y-82502797D01*
X115925500Y-82400009D01*
X115925499Y-81599992D01*
X115914999Y-81497203D01*
X115859814Y-81330666D01*
X115767712Y-81181344D01*
X115643656Y-81057288D01*
X115554117Y-81002060D01*
X115494333Y-80965185D01*
X115327797Y-80910001D01*
X115327801Y-80910001D01*
X115225009Y-80899500D01*
X113874996Y-80899500D01*
X113874984Y-80899501D01*
X113772201Y-80910001D01*
X113605666Y-80965186D01*
X113456345Y-81057287D01*
X113332287Y-81181345D01*
X113240185Y-81330666D01*
X113185001Y-81497200D01*
X113174500Y-81599985D01*
X113174500Y-82400003D01*
X113174501Y-82400015D01*
X113185001Y-82502798D01*
X113197329Y-82540000D01*
X113240186Y-82669334D01*
X113332288Y-82818656D01*
X113456344Y-82942712D01*
X113501821Y-82970762D01*
X113551091Y-83022985D01*
X113567648Y-83092846D01*
X113547057Y-83161626D01*
X113514757Y-83197828D01*
X113512116Y-83199905D01*
X113512109Y-83199911D01*
X113374486Y-83358737D01*
X113374480Y-83358744D01*
X113269394Y-83540758D01*
X113200655Y-83739367D01*
X113170746Y-83947392D01*
X113170746Y-83947396D01*
X113170746Y-83947398D01*
X110000500Y-83947398D01*
X110000500Y-76908183D01*
X110019082Y-76838833D01*
X110069850Y-76788065D01*
X110139200Y-76769483D01*
X110208550Y-76788065D01*
X110254001Y-76830347D01*
X110369028Y-77000000D01*
X110369030Y-77000003D01*
X110496442Y-77150002D01*
X111702265Y-75944179D01*
X111865130Y-76134870D01*
X112055818Y-76297733D01*
X110847256Y-77506296D01*
X110860480Y-77518823D01*
X111145365Y-77735387D01*
X111145371Y-77735391D01*
X111451977Y-77919869D01*
X111776753Y-78070127D01*
X112115872Y-78184388D01*
X112465335Y-78261311D01*
X112821081Y-78300000D01*
X113178919Y-78300000D01*
X113534664Y-78261311D01*
X113884127Y-78184388D01*
X114223246Y-78070127D01*
X114548022Y-77919869D01*
X114854628Y-77735391D01*
X114854643Y-77735381D01*
X115139505Y-77518836D01*
X115152742Y-77506296D01*
X113944179Y-76297733D01*
X114134870Y-76134870D01*
X114297733Y-75944180D01*
X115503556Y-77150003D01*
X115503557Y-77150003D01*
X115630960Y-77000014D01*
X115630974Y-76999996D01*
X115831780Y-76703830D01*
X115831782Y-76703826D01*
X115999390Y-76387684D01*
X115999401Y-76387659D01*
X116131849Y-76055243D01*
X116144156Y-76010918D01*
X116180613Y-75949067D01*
X116243112Y-75913732D01*
X116314906Y-75914380D01*
G37*
%TD.AperFunction*%
%TA.AperFunction,Conductor*%
G36*
X132430650Y-72019082D02*
G01*
X132481418Y-72069850D01*
X132500000Y-72139200D01*
X132500000Y-76246000D01*
X132500001Y-76246000D01*
X147499999Y-76246000D01*
X147500000Y-76246000D01*
X147500000Y-72139200D01*
X147518582Y-72069850D01*
X147569350Y-72019082D01*
X147638700Y-72000500D01*
X165084771Y-72000500D01*
X165154121Y-72019082D01*
X165204889Y-72069850D01*
X165223471Y-72139200D01*
X165204889Y-72208550D01*
X165156280Y-72258045D01*
X165145369Y-72264609D01*
X165145365Y-72264612D01*
X164860491Y-72481167D01*
X164847256Y-72493703D01*
X166055819Y-73702266D01*
X165865130Y-73865130D01*
X165702266Y-74055820D01*
X164496441Y-72849995D01*
X164369038Y-72999986D01*
X164369025Y-73000003D01*
X164168219Y-73296169D01*
X164168217Y-73296173D01*
X164000609Y-73612315D01*
X164000598Y-73612340D01*
X163868150Y-73944756D01*
X163772420Y-74289542D01*
X163772418Y-74289551D01*
X163714526Y-74642676D01*
X163695153Y-75000000D01*
X163714526Y-75357323D01*
X163772418Y-75710448D01*
X163772420Y-75710457D01*
X163868150Y-76055243D01*
X164000598Y-76387659D01*
X164000609Y-76387684D01*
X164168217Y-76703826D01*
X164168219Y-76703830D01*
X164369025Y-76999996D01*
X164369030Y-77000003D01*
X164496442Y-77150002D01*
X165702265Y-75944178D01*
X165865130Y-76134870D01*
X166055818Y-76297733D01*
X164847256Y-77506296D01*
X164860480Y-77518823D01*
X165145365Y-77735387D01*
X165145371Y-77735391D01*
X165451977Y-77919869D01*
X165776753Y-78070127D01*
X166115872Y-78184388D01*
X166465335Y-78261311D01*
X166821081Y-78300000D01*
X167178919Y-78300000D01*
X167534664Y-78261311D01*
X167884127Y-78184388D01*
X168223246Y-78070127D01*
X168548022Y-77919869D01*
X168854628Y-77735391D01*
X168854643Y-77735381D01*
X169139505Y-77518836D01*
X169152742Y-77506296D01*
X167944179Y-76297733D01*
X168134870Y-76134870D01*
X168297733Y-75944180D01*
X169503556Y-77150003D01*
X169503557Y-77150003D01*
X169630960Y-77000014D01*
X169630971Y-77000000D01*
X169745999Y-76830347D01*
X169800298Y-76783374D01*
X169870808Y-76769845D01*
X169938636Y-76793382D01*
X169985609Y-76847681D01*
X169999500Y-76908183D01*
X169999500Y-102091816D01*
X169980918Y-102161166D01*
X169930150Y-102211934D01*
X169860800Y-102230516D01*
X169791450Y-102211934D01*
X169746000Y-102169653D01*
X169630974Y-102000003D01*
X169630969Y-101999996D01*
X169503556Y-101849996D01*
X168297733Y-103055818D01*
X168134870Y-102865130D01*
X167944178Y-102702265D01*
X169152742Y-101493702D01*
X169139519Y-101481176D01*
X168854634Y-101264612D01*
X168854628Y-101264608D01*
X168548022Y-101080130D01*
X168223246Y-100929872D01*
X167884127Y-100815611D01*
X167534664Y-100738688D01*
X167178919Y-100700000D01*
X166821081Y-100700000D01*
X166465335Y-100738688D01*
X166115872Y-100815611D01*
X165776753Y-100929872D01*
X165451977Y-101080130D01*
X165145371Y-101264608D01*
X165145365Y-101264612D01*
X164860491Y-101481167D01*
X164847256Y-101493702D01*
X166055820Y-102702266D01*
X165865130Y-102865130D01*
X165702266Y-103055820D01*
X164496441Y-101849995D01*
X164369038Y-101999986D01*
X164369025Y-102000003D01*
X164168219Y-102296169D01*
X164168217Y-102296173D01*
X164000609Y-102612315D01*
X164000598Y-102612340D01*
X163868150Y-102944756D01*
X163772420Y-103289542D01*
X163772418Y-103289551D01*
X163714526Y-103642676D01*
X163695153Y-104000000D01*
X163714526Y-104357323D01*
X163772418Y-104710448D01*
X163772420Y-104710457D01*
X163868150Y-105055243D01*
X164000598Y-105387659D01*
X164000609Y-105387684D01*
X164168217Y-105703826D01*
X164168219Y-105703830D01*
X164369025Y-105999996D01*
X164369030Y-106000003D01*
X164496442Y-106150002D01*
X165702265Y-104944178D01*
X165865130Y-105134870D01*
X166055818Y-105297733D01*
X164847256Y-106506296D01*
X164860480Y-106518823D01*
X165145365Y-106735387D01*
X165145369Y-106735390D01*
X165156280Y-106741955D01*
X165206122Y-106793632D01*
X165223448Y-106863306D01*
X165203616Y-106932309D01*
X165151939Y-106982151D01*
X165084771Y-106999500D01*
X140149003Y-106999500D01*
X140079653Y-106980918D01*
X140028885Y-106930150D01*
X140010303Y-106860800D01*
X140028885Y-106791450D01*
X140079653Y-106740682D01*
X140083620Y-106738478D01*
X140179503Y-106687226D01*
X140263004Y-106642595D01*
X140416568Y-106516568D01*
X140445999Y-106480704D01*
X140450559Y-106475674D01*
X142400513Y-104525719D01*
X143320000Y-104525719D01*
X143335417Y-104677328D01*
X143335419Y-104677339D01*
X143396303Y-104871389D01*
X143495004Y-105049214D01*
X143627480Y-105203531D01*
X143627481Y-105203532D01*
X143788309Y-105328021D01*
X143970902Y-105417586D01*
X143970901Y-105417586D01*
X144070000Y-105443244D01*
X144070000Y-104641110D01*
X144094457Y-104680610D01*
X144183962Y-104748201D01*
X144291840Y-104778895D01*
X144403521Y-104768546D01*
X144503922Y-104718552D01*
X144570000Y-104646069D01*
X144570000Y-105448365D01*
X144571948Y-105448067D01*
X144762663Y-105377435D01*
X144762671Y-105377431D01*
X144935264Y-105269852D01*
X144935265Y-105269852D01*
X145082668Y-105129734D01*
X145198855Y-104962804D01*
X145279060Y-104775903D01*
X145319999Y-104576693D01*
X145320000Y-104576687D01*
X145320000Y-104325001D01*
X145319999Y-104325000D01*
X144620000Y-104325000D01*
X144620000Y-103825000D01*
X145319999Y-103825000D01*
X145320000Y-103824999D01*
X145320000Y-103624288D01*
X145319999Y-103624280D01*
X145304582Y-103472671D01*
X145304580Y-103472660D01*
X145243696Y-103278610D01*
X145144995Y-103100785D01*
X145012519Y-102946468D01*
X145012518Y-102946467D01*
X144851690Y-102821978D01*
X144669097Y-102732413D01*
X144669089Y-102732410D01*
X144570000Y-102706753D01*
X144570000Y-103508889D01*
X144545543Y-103469390D01*
X144456038Y-103401799D01*
X144348160Y-103371105D01*
X144236479Y-103381454D01*
X144136078Y-103431448D01*
X144070000Y-103503930D01*
X144070000Y-102701632D01*
X144069999Y-102701632D01*
X144068060Y-102701930D01*
X144068050Y-102701932D01*
X143877336Y-102772564D01*
X143877328Y-102772568D01*
X143704735Y-102880147D01*
X143704734Y-102880147D01*
X143557331Y-103020265D01*
X143441144Y-103187195D01*
X143360939Y-103374096D01*
X143320000Y-103573306D01*
X143320000Y-103824999D01*
X143320001Y-103825000D01*
X144020000Y-103825000D01*
X144020000Y-104325000D01*
X143320001Y-104325000D01*
X143320000Y-104325001D01*
X143320000Y-104525719D01*
X142400513Y-104525719D01*
X142482678Y-104443554D01*
X142487704Y-104438999D01*
X142523568Y-104409568D01*
X142649595Y-104256004D01*
X142743241Y-104080804D01*
X142800909Y-103890701D01*
X142820380Y-103693000D01*
X142815833Y-103646838D01*
X142815500Y-103640043D01*
X142815500Y-101430000D01*
X146019751Y-101430000D01*
X146038686Y-101598055D01*
X146038686Y-101598057D01*
X146038687Y-101598059D01*
X146077136Y-101707941D01*
X146094544Y-101757690D01*
X146094545Y-101757693D01*
X146121141Y-101800019D01*
X146184523Y-101900890D01*
X146304110Y-102020477D01*
X146398729Y-102079930D01*
X146447306Y-102110454D01*
X146447307Y-102110454D01*
X146447310Y-102110456D01*
X146606941Y-102166313D01*
X146775000Y-102185249D01*
X146943059Y-102166313D01*
X147102690Y-102110456D01*
X147245890Y-102020477D01*
X147365477Y-101900890D01*
X147455456Y-101757690D01*
X147511313Y-101598059D01*
X147530249Y-101430000D01*
X147511313Y-101261941D01*
X147455456Y-101102310D01*
X147455454Y-101102307D01*
X147455454Y-101102306D01*
X147424930Y-101053729D01*
X147365477Y-100959110D01*
X147245890Y-100839523D01*
X147153188Y-100781274D01*
X147102693Y-100749545D01*
X147102690Y-100749544D01*
X147043678Y-100728895D01*
X146943059Y-100693687D01*
X146943057Y-100693686D01*
X146943055Y-100693686D01*
X146775000Y-100674751D01*
X146606944Y-100693686D01*
X146447309Y-100749544D01*
X146447306Y-100749545D01*
X146304110Y-100839523D01*
X146184523Y-100959110D01*
X146094545Y-101102306D01*
X146094544Y-101102309D01*
X146038686Y-101261944D01*
X146019751Y-101430000D01*
X142815500Y-101430000D01*
X142815500Y-101106910D01*
X142834082Y-101037560D01*
X142884850Y-100986792D01*
X142936091Y-100969397D01*
X143040236Y-100955687D01*
X143180233Y-100897698D01*
X143233836Y-100856566D01*
X143300166Y-100829091D01*
X143371348Y-100838461D01*
X143428308Y-100882168D01*
X143439543Y-100899292D01*
X143495005Y-100999216D01*
X143627480Y-101153531D01*
X143627481Y-101153532D01*
X143788309Y-101278021D01*
X143970902Y-101367586D01*
X143970901Y-101367586D01*
X144070000Y-101393244D01*
X144070000Y-100591110D01*
X144094457Y-100630610D01*
X144183962Y-100698201D01*
X144291840Y-100728895D01*
X144403521Y-100718546D01*
X144503922Y-100668552D01*
X144570000Y-100596069D01*
X144570000Y-101398364D01*
X144571948Y-101398067D01*
X144762663Y-101327435D01*
X144762671Y-101327431D01*
X144935264Y-101219852D01*
X144935265Y-101219852D01*
X145082668Y-101079734D01*
X145198855Y-100912804D01*
X145279060Y-100725903D01*
X145319999Y-100526693D01*
X145320000Y-100526687D01*
X145320000Y-100125001D01*
X145319999Y-100125000D01*
X144620000Y-100125000D01*
X144620000Y-99625000D01*
X145319999Y-99625000D01*
X145320000Y-99624999D01*
X145320000Y-99274288D01*
X145319999Y-99274280D01*
X145304582Y-99122671D01*
X145304580Y-99122660D01*
X145243696Y-98928610D01*
X145144995Y-98750785D01*
X145012519Y-98596468D01*
X145012518Y-98596467D01*
X144851690Y-98471978D01*
X144669097Y-98382413D01*
X144669089Y-98382410D01*
X144472212Y-98331435D01*
X144465249Y-98330368D01*
X144465430Y-98329183D01*
X144404112Y-98309371D01*
X144355983Y-98256095D01*
X144340940Y-98185892D01*
X144363014Y-98117573D01*
X144381382Y-98094851D01*
X144427111Y-98049123D01*
X144489289Y-98013226D01*
X144525186Y-98008500D01*
X148481522Y-98008500D01*
X148550872Y-98027082D01*
X148601640Y-98077850D01*
X148620222Y-98147200D01*
X148614374Y-98181614D01*
X148615419Y-98181853D01*
X148613686Y-98189440D01*
X148594751Y-98357500D01*
X148613686Y-98525557D01*
X148613687Y-98525559D01*
X148647940Y-98623452D01*
X148649727Y-98628557D01*
X148651199Y-98633305D01*
X148654977Y-98647230D01*
X148655201Y-98719026D01*
X148652033Y-98729354D01*
X148613686Y-98838945D01*
X148594751Y-99007003D01*
X148613686Y-99175058D01*
X148613686Y-99175060D01*
X148613687Y-99175062D01*
X148645584Y-99266220D01*
X148659539Y-99306102D01*
X148669544Y-99334693D01*
X148701241Y-99385139D01*
X148722403Y-99453745D01*
X148722500Y-99458931D01*
X148722500Y-99459477D01*
X148723328Y-99466030D01*
X148723840Y-99472541D01*
X148725298Y-99518936D01*
X148725300Y-99518951D01*
X148730594Y-99537171D01*
X148735007Y-99558482D01*
X148737382Y-99577287D01*
X148737383Y-99577289D01*
X148737384Y-99577293D01*
X148742057Y-99589096D01*
X148754466Y-99620438D01*
X148756583Y-99626621D01*
X148764914Y-99655298D01*
X148769532Y-99671191D01*
X148779190Y-99687522D01*
X148788761Y-99707058D01*
X148795747Y-99724703D01*
X148795748Y-99724704D01*
X148823020Y-99762241D01*
X148826610Y-99767705D01*
X148847310Y-99802707D01*
X148850238Y-99807657D01*
X148863655Y-99821075D01*
X148877786Y-99837620D01*
X148888934Y-99852964D01*
X148888935Y-99852965D01*
X148888937Y-99852967D01*
X148923205Y-99881316D01*
X148924680Y-99882536D01*
X148929516Y-99886936D01*
X149116479Y-100073898D01*
X149126755Y-100086723D01*
X149127099Y-100086440D01*
X149132656Y-100093158D01*
X149132659Y-100093161D01*
X149132660Y-100093162D01*
X149183258Y-100140677D01*
X149204204Y-100161623D01*
X149208431Y-100164901D01*
X149209427Y-100165674D01*
X149214399Y-100169920D01*
X149248233Y-100201693D01*
X149248235Y-100201694D01*
X149248236Y-100201695D01*
X149264858Y-100210833D01*
X149283052Y-100222783D01*
X149298038Y-100234408D01*
X149340626Y-100252837D01*
X149346492Y-100255711D01*
X149368913Y-100268037D01*
X149387166Y-100278072D01*
X149387171Y-100278073D01*
X149387173Y-100278074D01*
X149405537Y-100282789D01*
X149426134Y-100289841D01*
X149434994Y-100293675D01*
X149443542Y-100297374D01*
X149489402Y-100304636D01*
X149495772Y-100305956D01*
X149540728Y-100317500D01*
X149559703Y-100317500D01*
X149581399Y-100319207D01*
X149600133Y-100322175D01*
X149646332Y-100317807D01*
X149652856Y-100317500D01*
X151330594Y-100317500D01*
X151399944Y-100336082D01*
X151450712Y-100386850D01*
X151469294Y-100456200D01*
X151450712Y-100525550D01*
X151404388Y-100573640D01*
X151379111Y-100589522D01*
X151259523Y-100709110D01*
X151169545Y-100852306D01*
X151169544Y-100852309D01*
X151113686Y-101011944D01*
X151094751Y-101180000D01*
X151113686Y-101348055D01*
X151113686Y-101348057D01*
X151113687Y-101348059D01*
X151131290Y-101398365D01*
X151169544Y-101507690D01*
X151169545Y-101507693D01*
X151213528Y-101577690D01*
X151259523Y-101650890D01*
X151379110Y-101770477D01*
X151426126Y-101800019D01*
X151522306Y-101860454D01*
X151522307Y-101860454D01*
X151522310Y-101860456D01*
X151681941Y-101916313D01*
X151850000Y-101935249D01*
X152018059Y-101916313D01*
X152177690Y-101860456D01*
X152320890Y-101770477D01*
X152440477Y-101650890D01*
X152530456Y-101507690D01*
X152586313Y-101348059D01*
X152605249Y-101180000D01*
X152586313Y-101011941D01*
X152530456Y-100852310D01*
X152530454Y-100852307D01*
X152530454Y-100852306D01*
X152465884Y-100749545D01*
X152440477Y-100709110D01*
X152320890Y-100589523D01*
X152295611Y-100573639D01*
X152246778Y-100521009D01*
X152230803Y-100451012D01*
X152251966Y-100382406D01*
X152304597Y-100333572D01*
X152369406Y-100317500D01*
X156363575Y-100317500D01*
X156432925Y-100336082D01*
X156483693Y-100386850D01*
X156502275Y-100456200D01*
X156483693Y-100525550D01*
X156481625Y-100529013D01*
X156465187Y-100555663D01*
X156465186Y-100555665D01*
X156410001Y-100722200D01*
X156399500Y-100824985D01*
X156399500Y-102175003D01*
X156399501Y-102175015D01*
X156403273Y-102211934D01*
X156410001Y-102277797D01*
X156465186Y-102444334D01*
X156557288Y-102593656D01*
X156681344Y-102717712D01*
X156830666Y-102809814D01*
X156997200Y-102864998D01*
X156997203Y-102864999D01*
X157099991Y-102875500D01*
X157900008Y-102875499D01*
X158002797Y-102864999D01*
X158169334Y-102809814D01*
X158318656Y-102717712D01*
X158442712Y-102593656D01*
X158471042Y-102547724D01*
X158523262Y-102498456D01*
X158593123Y-102481898D01*
X158661903Y-102502488D01*
X158698114Y-102534797D01*
X158700272Y-102537541D01*
X158859035Y-102675109D01*
X159040967Y-102780148D01*
X159239489Y-102848856D01*
X159249999Y-102850367D01*
X159250000Y-102850367D01*
X159250000Y-101780617D01*
X159319052Y-101834363D01*
X159437424Y-101875000D01*
X159531073Y-101875000D01*
X159623446Y-101859586D01*
X159733514Y-101800019D01*
X159750000Y-101782110D01*
X159750000Y-102846258D01*
X159861408Y-102819231D01*
X159861409Y-102819230D01*
X160052501Y-102731962D01*
X160223627Y-102610103D01*
X160368592Y-102458066D01*
X160482166Y-102281343D01*
X160560243Y-102086316D01*
X160600000Y-101880034D01*
X160600000Y-101750001D01*
X160599999Y-101750000D01*
X159779560Y-101750000D01*
X159818278Y-101707941D01*
X159868551Y-101593330D01*
X159878886Y-101468605D01*
X159848163Y-101347281D01*
X159784606Y-101250000D01*
X160599999Y-101250000D01*
X160600000Y-101249999D01*
X160600000Y-101172593D01*
X160585035Y-101015879D01*
X160525850Y-100814313D01*
X160525849Y-100814311D01*
X160429587Y-100627587D01*
X160299727Y-100462458D01*
X160140964Y-100324890D01*
X159959032Y-100219851D01*
X159760509Y-100151142D01*
X159750000Y-100149631D01*
X159750000Y-101219382D01*
X159680948Y-101165637D01*
X159562576Y-101125000D01*
X159468927Y-101125000D01*
X159376554Y-101140414D01*
X159266486Y-101199981D01*
X159250000Y-101217889D01*
X159250000Y-100153741D01*
X159138585Y-100180771D01*
X158947498Y-100268037D01*
X158776372Y-100389896D01*
X158691668Y-100478732D01*
X158630362Y-100516100D01*
X158558586Y-100517808D01*
X158495572Y-100483400D01*
X158473236Y-100455832D01*
X158454065Y-100424751D01*
X158442712Y-100406344D01*
X158330693Y-100294325D01*
X158330071Y-100293675D01*
X158330065Y-100293671D01*
X158329593Y-100293177D01*
X158328579Y-100292211D01*
X158318656Y-100282288D01*
X158307306Y-100275287D01*
X158300939Y-100270849D01*
X158180658Y-100176610D01*
X158137529Y-100119212D01*
X158127500Y-100067430D01*
X158127500Y-100044588D01*
X158129304Y-100028250D01*
X158128859Y-100028208D01*
X158129680Y-100019525D01*
X158127500Y-99950141D01*
X158127500Y-99920528D01*
X158127500Y-99920524D01*
X158126671Y-99913965D01*
X158126158Y-99907451D01*
X158125682Y-99892304D01*
X158124701Y-99861058D01*
X158119403Y-99842825D01*
X158114992Y-99821522D01*
X158112616Y-99802707D01*
X158095532Y-99759558D01*
X158093414Y-99753372D01*
X158090289Y-99742616D01*
X158080468Y-99708809D01*
X158070808Y-99692476D01*
X158061234Y-99672931D01*
X158054253Y-99655297D01*
X158026977Y-99617756D01*
X158023386Y-99612289D01*
X157999765Y-99572346D01*
X157986343Y-99558924D01*
X157972208Y-99542373D01*
X157961063Y-99527033D01*
X157925312Y-99497457D01*
X157920477Y-99493058D01*
X157733521Y-99306102D01*
X157723244Y-99293273D01*
X157722900Y-99293559D01*
X157717341Y-99286838D01*
X157692835Y-99263827D01*
X157666741Y-99239322D01*
X157645796Y-99218377D01*
X157641120Y-99214750D01*
X157640571Y-99214324D01*
X157635598Y-99210077D01*
X157601766Y-99178306D01*
X157601763Y-99178304D01*
X157585143Y-99169168D01*
X157566951Y-99157219D01*
X157551962Y-99145592D01*
X157551961Y-99145591D01*
X157551959Y-99145590D01*
X157509369Y-99127160D01*
X157503499Y-99124284D01*
X157462834Y-99101928D01*
X157444456Y-99097209D01*
X157423872Y-99090161D01*
X157406463Y-99082628D01*
X157406461Y-99082627D01*
X157406458Y-99082626D01*
X157406454Y-99082625D01*
X157406453Y-99082625D01*
X157360624Y-99075366D01*
X157354225Y-99074041D01*
X157309278Y-99062501D01*
X157309274Y-99062500D01*
X157309272Y-99062500D01*
X157309269Y-99062500D01*
X157290297Y-99062500D01*
X157268600Y-99060792D01*
X157249864Y-99057824D01*
X157213886Y-99061226D01*
X157203667Y-99062192D01*
X157197144Y-99062500D01*
X150235452Y-99062500D01*
X150166102Y-99043918D01*
X150115334Y-98993150D01*
X150097624Y-98939330D01*
X150086313Y-98838946D01*
X150086313Y-98838945D01*
X150086313Y-98838944D01*
X150048999Y-98732309D01*
X150043635Y-98660716D01*
X150049554Y-98639140D01*
X150052546Y-98630904D01*
X150060826Y-98608114D01*
X150061373Y-98604402D01*
X150067671Y-98578830D01*
X150086313Y-98525559D01*
X150105249Y-98357500D01*
X150086313Y-98189441D01*
X150086313Y-98189440D01*
X150084581Y-98181853D01*
X150086689Y-98181371D01*
X150082197Y-98121412D01*
X150113349Y-98056726D01*
X150172671Y-98016283D01*
X150218478Y-98008500D01*
X152475508Y-98008500D01*
X152482301Y-98008833D01*
X152598494Y-98020277D01*
X152629999Y-98023380D01*
X152630000Y-98023380D01*
X152630001Y-98023380D01*
X152661505Y-98020277D01*
X152777698Y-98008833D01*
X152784492Y-98008500D01*
X156947043Y-98008500D01*
X156953838Y-98008833D01*
X156987415Y-98012140D01*
X156999999Y-98013380D01*
X157000000Y-98013380D01*
X157000002Y-98013380D01*
X157046158Y-98008834D01*
X157197701Y-97993909D01*
X157387804Y-97936241D01*
X157432576Y-97912310D01*
X157563004Y-97842595D01*
X157716568Y-97716568D01*
X157745999Y-97680704D01*
X157750554Y-97675678D01*
X158275678Y-97150554D01*
X158280704Y-97145999D01*
X158316568Y-97116568D01*
X158442595Y-96963004D01*
X158536241Y-96787804D01*
X158593908Y-96597701D01*
X158608500Y-96449547D01*
X158608500Y-96449544D01*
X158613380Y-96400000D01*
X158608833Y-96353840D01*
X158608500Y-96347044D01*
X158608500Y-92447392D01*
X164120746Y-92447392D01*
X164130745Y-92657325D01*
X164130746Y-92657333D01*
X164180294Y-92861571D01*
X164180295Y-92861574D01*
X164180296Y-92861576D01*
X164267604Y-93052753D01*
X164350620Y-93169333D01*
X164389516Y-93223955D01*
X164461648Y-93292732D01*
X164471534Y-93302158D01*
X164478292Y-93308601D01*
X164515660Y-93369907D01*
X164517369Y-93441683D01*
X164482962Y-93504697D01*
X164455394Y-93527033D01*
X164406348Y-93557285D01*
X164406345Y-93557287D01*
X164282287Y-93681345D01*
X164190185Y-93830666D01*
X164135001Y-93997200D01*
X164124500Y-94099985D01*
X164124500Y-94900003D01*
X164124501Y-94900015D01*
X164135001Y-95002798D01*
X164151555Y-95052753D01*
X164190186Y-95169334D01*
X164282288Y-95318656D01*
X164406344Y-95442712D01*
X164555666Y-95534814D01*
X164722200Y-95589998D01*
X164722203Y-95589999D01*
X164824991Y-95600500D01*
X166175008Y-95600499D01*
X166277797Y-95589999D01*
X166444334Y-95534814D01*
X166593656Y-95442712D01*
X166717712Y-95318656D01*
X166809814Y-95169334D01*
X166864999Y-95002797D01*
X166875500Y-94900009D01*
X166875499Y-94099992D01*
X166864999Y-93997203D01*
X166809814Y-93830666D01*
X166717712Y-93681344D01*
X166593656Y-93557288D01*
X166548175Y-93529235D01*
X166498908Y-93477014D01*
X166482351Y-93407153D01*
X166502942Y-93338372D01*
X166535252Y-93302162D01*
X166537886Y-93300092D01*
X166675519Y-93141256D01*
X166780604Y-92959244D01*
X166849344Y-92760633D01*
X166879254Y-92552602D01*
X166869254Y-92342670D01*
X166819704Y-92138424D01*
X166732396Y-91947247D01*
X166610486Y-91776048D01*
X166610485Y-91776047D01*
X166610483Y-91776044D01*
X166458376Y-91631012D01*
X166281575Y-91517389D01*
X166281571Y-91517386D01*
X166086453Y-91439273D01*
X165880090Y-91399500D01*
X165880085Y-91399500D01*
X165172575Y-91399500D01*
X165172573Y-91399500D01*
X165015784Y-91414471D01*
X164814127Y-91473683D01*
X164814120Y-91473686D01*
X164627317Y-91569989D01*
X164462109Y-91699911D01*
X164324486Y-91858737D01*
X164324480Y-91858744D01*
X164219394Y-92040758D01*
X164150655Y-92239367D01*
X164120746Y-92447392D01*
X158608500Y-92447392D01*
X158608500Y-88275186D01*
X158627082Y-88205836D01*
X158649124Y-88177110D01*
X158877110Y-87949124D01*
X158939288Y-87913226D01*
X158975186Y-87908500D01*
X160199053Y-87908500D01*
X160235624Y-87904897D01*
X160347204Y-87893908D01*
X160537307Y-87836241D01*
X160712507Y-87742595D01*
X160866071Y-87616568D01*
X160992098Y-87463004D01*
X161085744Y-87287804D01*
X161143411Y-87097701D01*
X161162883Y-86900000D01*
X161143411Y-86702299D01*
X161085744Y-86512196D01*
X161085742Y-86512191D01*
X161033565Y-86414576D01*
X160992098Y-86336996D01*
X160866071Y-86183432D01*
X160712507Y-86057405D01*
X160659073Y-86028844D01*
X160537311Y-85963760D01*
X160537306Y-85963758D01*
X160347205Y-85906092D01*
X160199053Y-85891500D01*
X160199050Y-85891500D01*
X158552955Y-85891500D01*
X158546158Y-85891166D01*
X158511916Y-85887793D01*
X158500001Y-85886620D01*
X158499999Y-85886620D01*
X158450453Y-85891500D01*
X158302297Y-85906092D01*
X158112196Y-85963758D01*
X158112191Y-85963760D01*
X157936996Y-86057404D01*
X157936991Y-86057407D01*
X157783437Y-86183426D01*
X157783426Y-86183438D01*
X157754009Y-86219282D01*
X157749437Y-86224327D01*
X156924327Y-87049437D01*
X156919282Y-87054009D01*
X156883438Y-87083426D01*
X156883426Y-87083437D01*
X156757407Y-87236991D01*
X156757404Y-87236996D01*
X156683020Y-87376160D01*
X156663759Y-87412195D01*
X156663756Y-87412202D01*
X156606092Y-87602292D01*
X156606091Y-87602295D01*
X156589667Y-87769060D01*
X156586620Y-87800000D01*
X156590189Y-87836241D01*
X156591166Y-87846154D01*
X156591500Y-87852956D01*
X156591500Y-95852800D01*
X156572918Y-95922150D01*
X156522150Y-95972918D01*
X156452800Y-95991500D01*
X152692955Y-95991500D01*
X152686158Y-95991166D01*
X152658942Y-95988485D01*
X152640002Y-95986620D01*
X152633196Y-95986620D01*
X152633196Y-95986269D01*
X152626805Y-95986269D01*
X152626805Y-95986620D01*
X152619997Y-95986620D01*
X152599232Y-95988665D01*
X152573837Y-95991166D01*
X152567043Y-95991500D01*
X145197200Y-95991500D01*
X145127850Y-95972918D01*
X145077082Y-95922150D01*
X145058500Y-95852800D01*
X145058500Y-93560000D01*
X147454751Y-93560000D01*
X147473686Y-93728055D01*
X147473686Y-93728057D01*
X147473687Y-93728059D01*
X147509591Y-93830666D01*
X147529544Y-93887690D01*
X147529545Y-93887693D01*
X147566966Y-93947247D01*
X147619523Y-94030890D01*
X147739110Y-94150477D01*
X147833729Y-94209930D01*
X147882306Y-94240454D01*
X147882307Y-94240454D01*
X147882310Y-94240456D01*
X148041941Y-94296313D01*
X148210000Y-94315249D01*
X148378059Y-94296313D01*
X148537690Y-94240456D01*
X148680890Y-94150477D01*
X148800477Y-94030890D01*
X148890456Y-93887690D01*
X148946313Y-93728059D01*
X148965249Y-93560000D01*
X148946313Y-93391941D01*
X148890456Y-93232310D01*
X148890454Y-93232307D01*
X148890454Y-93232306D01*
X148833246Y-93141262D01*
X148800477Y-93089110D01*
X148680890Y-92969523D01*
X148621435Y-92932164D01*
X148537693Y-92879545D01*
X148537690Y-92879544D01*
X148486340Y-92861576D01*
X148378059Y-92823687D01*
X148378057Y-92823686D01*
X148378055Y-92823686D01*
X148210000Y-92804751D01*
X148041944Y-92823686D01*
X147882309Y-92879544D01*
X147882306Y-92879545D01*
X147739110Y-92969523D01*
X147619523Y-93089110D01*
X147529545Y-93232306D01*
X147529544Y-93232309D01*
X147473686Y-93391944D01*
X147454751Y-93560000D01*
X145058500Y-93560000D01*
X145058500Y-93072954D01*
X145058834Y-93066152D01*
X145059474Y-93059662D01*
X145063380Y-93020000D01*
X145043908Y-92822299D01*
X144986241Y-92632196D01*
X144986239Y-92632191D01*
X144892595Y-92456996D01*
X144884713Y-92447392D01*
X144824352Y-92373842D01*
X144793887Y-92336720D01*
X144766573Y-92303437D01*
X144766567Y-92303431D01*
X144760829Y-92298722D01*
X144730710Y-92274004D01*
X144725674Y-92269440D01*
X143750563Y-91294328D01*
X143745990Y-91289283D01*
X143716568Y-91253432D01*
X143716565Y-91253429D01*
X143716563Y-91253427D01*
X143627040Y-91179958D01*
X143563004Y-91127405D01*
X143554012Y-91122599D01*
X143387812Y-91033762D01*
X143387798Y-91033757D01*
X143384529Y-91032765D01*
X143197707Y-90976092D01*
X143197704Y-90976091D01*
X143000002Y-90956620D01*
X142999999Y-90956620D01*
X142987415Y-90957859D01*
X142953838Y-90961166D01*
X142947043Y-90961500D01*
X140471953Y-90961500D01*
X140466281Y-90962058D01*
X140395444Y-90950355D01*
X140339950Y-90904802D01*
X140314666Y-90837605D01*
X140314000Y-90824024D01*
X140314000Y-88251714D01*
X140332582Y-88182364D01*
X140383350Y-88131596D01*
X140426820Y-88117296D01*
X140426517Y-88115966D01*
X140434109Y-88114232D01*
X140434109Y-88114231D01*
X140434116Y-88114231D01*
X140593747Y-88058374D01*
X140736947Y-87968395D01*
X140846633Y-87858708D01*
X140908809Y-87822812D01*
X140980605Y-87822812D01*
X141004684Y-87833331D01*
X141005289Y-87832075D01*
X141012306Y-87835453D01*
X141012310Y-87835456D01*
X141012339Y-87835466D01*
X141012358Y-87835479D01*
X141019325Y-87838834D01*
X141018943Y-87839625D01*
X141019013Y-87839669D01*
X141018860Y-87839911D01*
X141071660Y-87875910D01*
X141102812Y-87940596D01*
X141104358Y-87950853D01*
X141116641Y-88059867D01*
X141172499Y-88219501D01*
X141172500Y-88219504D01*
X141207488Y-88275186D01*
X141262478Y-88362701D01*
X141382065Y-88482288D01*
X141476684Y-88541741D01*
X141525261Y-88572265D01*
X141525262Y-88572265D01*
X141525265Y-88572267D01*
X141684896Y-88628124D01*
X141852955Y-88647060D01*
X142021014Y-88628124D01*
X142180645Y-88572267D01*
X142323845Y-88482288D01*
X142443432Y-88362701D01*
X142533411Y-88219501D01*
X142535601Y-88213239D01*
X142547446Y-88188773D01*
X142547310Y-88188700D01*
X142549029Y-88185505D01*
X142549392Y-88184754D01*
X142549657Y-88184338D01*
X142592360Y-88089298D01*
X142632362Y-88006742D01*
X142640776Y-87987434D01*
X142675692Y-87897350D01*
X142682894Y-87875992D01*
X142689714Y-87852327D01*
X142694987Y-87830402D01*
X142695631Y-87827082D01*
X142713233Y-87736241D01*
X142714934Y-87727464D01*
X142717787Y-87709181D01*
X142720173Y-87689089D01*
X142721682Y-87670615D01*
X142724130Y-87616100D01*
X142724650Y-87610198D01*
X142727867Y-87585766D01*
X142727691Y-87584434D01*
X142727500Y-87580000D01*
X143374751Y-87580000D01*
X143393686Y-87748055D01*
X143393686Y-87748057D01*
X143393687Y-87748059D01*
X143445926Y-87897350D01*
X143449544Y-87907690D01*
X143449545Y-87907693D01*
X143493164Y-87977110D01*
X143539523Y-88050890D01*
X143659110Y-88170477D01*
X143734319Y-88217734D01*
X143802306Y-88260454D01*
X143802307Y-88260454D01*
X143802310Y-88260456D01*
X143961941Y-88316313D01*
X144130000Y-88335249D01*
X144298059Y-88316313D01*
X144457690Y-88260456D01*
X144600890Y-88170477D01*
X144720477Y-88050890D01*
X144810456Y-87907690D01*
X144866313Y-87748059D01*
X144885249Y-87580000D01*
X144866313Y-87411941D01*
X144810456Y-87252310D01*
X144810454Y-87252307D01*
X144810454Y-87252306D01*
X144779930Y-87203729D01*
X144720477Y-87109110D01*
X144600890Y-86989523D01*
X144541435Y-86952164D01*
X144457693Y-86899545D01*
X144457690Y-86899544D01*
X144411641Y-86883431D01*
X144298059Y-86843687D01*
X144298057Y-86843686D01*
X144298055Y-86843686D01*
X144130000Y-86824751D01*
X143961944Y-86843686D01*
X143802309Y-86899544D01*
X143802306Y-86899545D01*
X143659110Y-86989523D01*
X143539523Y-87109110D01*
X143449545Y-87252306D01*
X143449544Y-87252309D01*
X143393686Y-87411944D01*
X143374751Y-87580000D01*
X142727500Y-87580000D01*
X142726644Y-87560105D01*
X142727192Y-87547918D01*
X142727331Y-87541829D01*
X142724565Y-87476232D01*
X142724564Y-87476228D01*
X142724564Y-87476226D01*
X142724476Y-87475624D01*
X142723000Y-87455446D01*
X142723000Y-84525000D01*
X145869751Y-84525000D01*
X145888686Y-84693055D01*
X145944544Y-84852690D01*
X145944545Y-84852693D01*
X145993128Y-84930010D01*
X146034523Y-84995890D01*
X146154110Y-85115477D01*
X146248729Y-85174930D01*
X146297306Y-85205454D01*
X146297307Y-85205454D01*
X146297310Y-85205456D01*
X146456941Y-85261313D01*
X146625000Y-85280249D01*
X146793059Y-85261313D01*
X146952690Y-85205456D01*
X147095890Y-85115477D01*
X147215477Y-84995890D01*
X147305456Y-84852690D01*
X147361313Y-84693059D01*
X147380249Y-84525000D01*
X147361313Y-84356941D01*
X147305456Y-84197310D01*
X147305454Y-84197307D01*
X147305454Y-84197306D01*
X147225461Y-84070000D01*
X147215477Y-84054110D01*
X147095890Y-83934523D01*
X147033655Y-83895418D01*
X146952693Y-83844545D01*
X146952690Y-83844544D01*
X146947323Y-83842666D01*
X146793059Y-83788687D01*
X146793057Y-83788686D01*
X146793055Y-83788686D01*
X146625000Y-83769751D01*
X146456944Y-83788686D01*
X146297309Y-83844544D01*
X146297306Y-83844545D01*
X146154110Y-83934523D01*
X146034523Y-84054110D01*
X145944545Y-84197306D01*
X145944544Y-84197309D01*
X145888686Y-84356944D01*
X145869751Y-84525000D01*
X142723000Y-84525000D01*
X142723000Y-84522069D01*
X142741582Y-84452719D01*
X142763624Y-84423993D01*
X143292993Y-83894624D01*
X143355171Y-83858726D01*
X143391069Y-83854000D01*
X143786376Y-83854000D01*
X143855726Y-83872582D01*
X143863585Y-83877477D01*
X143890353Y-83895417D01*
X143890355Y-83895418D01*
X143903483Y-83903646D01*
X143913556Y-83909536D01*
X143917740Y-83911983D01*
X143924805Y-83915818D01*
X143931871Y-83919654D01*
X143981675Y-83944674D01*
X144026636Y-83967262D01*
X144032243Y-83970423D01*
X144032304Y-83970452D01*
X144032310Y-83970456D01*
X144032315Y-83970457D01*
X144032752Y-83970668D01*
X144037754Y-83972688D01*
X144042660Y-83974945D01*
X144109658Y-84000175D01*
X144109676Y-84000177D01*
X144109678Y-84000178D01*
X144135256Y-84006477D01*
X144191941Y-84026313D01*
X144360000Y-84045249D01*
X144528059Y-84026313D01*
X144687690Y-83970456D01*
X144830890Y-83880477D01*
X144950477Y-83760890D01*
X145040456Y-83617690D01*
X145096313Y-83458059D01*
X145115249Y-83290000D01*
X145096313Y-83121941D01*
X145044462Y-82973761D01*
X145039098Y-82902167D01*
X145048009Y-82875087D01*
X145047883Y-82875043D01*
X145050250Y-82868276D01*
X145050418Y-82867768D01*
X145050450Y-82867698D01*
X145050456Y-82867690D01*
X145106313Y-82708059D01*
X145125249Y-82540000D01*
X145106313Y-82371941D01*
X145050456Y-82212310D01*
X145050454Y-82212307D01*
X145050454Y-82212306D01*
X145015906Y-82157325D01*
X144960477Y-82069110D01*
X144840890Y-81949523D01*
X144837508Y-81947398D01*
X164070746Y-81947398D01*
X164072800Y-81990516D01*
X164080745Y-82157325D01*
X164080746Y-82157333D01*
X164130294Y-82361571D01*
X164130295Y-82361574D01*
X164130296Y-82361576D01*
X164217604Y-82552753D01*
X164280626Y-82641255D01*
X164339516Y-82723955D01*
X164411648Y-82792732D01*
X164421534Y-82802158D01*
X164428292Y-82808601D01*
X164465660Y-82869907D01*
X164467369Y-82941683D01*
X164432962Y-83004697D01*
X164405394Y-83027033D01*
X164356348Y-83057285D01*
X164356345Y-83057287D01*
X164232287Y-83181345D01*
X164140185Y-83330666D01*
X164085001Y-83497200D01*
X164074500Y-83599985D01*
X164074500Y-84400003D01*
X164074501Y-84400015D01*
X164085001Y-84502798D01*
X164091387Y-84522069D01*
X164140186Y-84669334D01*
X164232288Y-84818656D01*
X164356344Y-84942712D01*
X164505666Y-85034814D01*
X164672200Y-85089998D01*
X164672203Y-85089999D01*
X164774991Y-85100500D01*
X166125008Y-85100499D01*
X166227797Y-85089999D01*
X166394334Y-85034814D01*
X166543656Y-84942712D01*
X166667712Y-84818656D01*
X166759814Y-84669334D01*
X166814999Y-84502797D01*
X166825500Y-84400009D01*
X166825499Y-83599992D01*
X166814999Y-83497203D01*
X166759814Y-83330666D01*
X166667712Y-83181344D01*
X166543656Y-83057288D01*
X166498175Y-83029235D01*
X166448908Y-82977014D01*
X166432351Y-82907153D01*
X166452942Y-82838372D01*
X166485252Y-82802162D01*
X166487886Y-82800092D01*
X166625519Y-82641256D01*
X166730604Y-82459244D01*
X166799344Y-82260633D01*
X166829254Y-82052602D01*
X166819254Y-81842670D01*
X166769704Y-81638424D01*
X166682396Y-81447247D01*
X166560486Y-81276048D01*
X166560485Y-81276047D01*
X166560483Y-81276044D01*
X166408376Y-81131012D01*
X166231575Y-81017389D01*
X166231571Y-81017386D01*
X166036453Y-80939273D01*
X165830090Y-80899500D01*
X165830085Y-80899500D01*
X165122575Y-80899500D01*
X165122573Y-80899500D01*
X164965784Y-80914471D01*
X164764127Y-80973683D01*
X164764120Y-80973686D01*
X164577317Y-81069989D01*
X164412109Y-81199911D01*
X164274486Y-81358737D01*
X164274480Y-81358744D01*
X164169394Y-81540758D01*
X164100655Y-81739367D01*
X164070746Y-81947392D01*
X164070746Y-81947396D01*
X164070746Y-81947398D01*
X144837508Y-81947398D01*
X144778576Y-81910368D01*
X144697693Y-81859545D01*
X144697690Y-81859544D01*
X144649478Y-81842674D01*
X144538059Y-81803687D01*
X144538057Y-81803686D01*
X144538055Y-81803686D01*
X144370000Y-81784751D01*
X144201944Y-81803686D01*
X144042308Y-81859544D01*
X144042247Y-81859573D01*
X144036628Y-81862739D01*
X143989886Y-81886222D01*
X143941825Y-81910368D01*
X143927627Y-81918078D01*
X143927624Y-81918080D01*
X143913379Y-81926416D01*
X143900317Y-81934605D01*
X143873934Y-81952286D01*
X143813267Y-81974778D01*
X143809944Y-81975177D01*
X143807217Y-81975504D01*
X143798943Y-81976000D01*
X142911523Y-81976000D01*
X142902463Y-81975406D01*
X142876616Y-81972003D01*
X142870001Y-81971132D01*
X142869997Y-81971132D01*
X142722768Y-81990516D01*
X142585568Y-82047346D01*
X142509819Y-82105470D01*
X142467751Y-82137748D01*
X142467745Y-82137755D01*
X142447820Y-82163721D01*
X142441834Y-82170547D01*
X140970546Y-83641834D01*
X140963721Y-83647820D01*
X140937752Y-83667748D01*
X140937744Y-83667756D01*
X140902524Y-83713654D01*
X140902514Y-83713669D01*
X140847347Y-83785565D01*
X140790516Y-83922767D01*
X140790515Y-83922769D01*
X140771133Y-84069996D01*
X140771133Y-84069999D01*
X140775406Y-84102452D01*
X140776000Y-84111515D01*
X140776000Y-86565755D01*
X140757418Y-86635105D01*
X140706650Y-86685873D01*
X140637300Y-86704455D01*
X140591491Y-86696672D01*
X140534011Y-86676559D01*
X140474689Y-86636114D01*
X140448903Y-86591451D01*
X140447781Y-86588245D01*
X140440456Y-86567310D01*
X140440454Y-86567307D01*
X140440454Y-86567306D01*
X140405822Y-86512191D01*
X140350477Y-86424110D01*
X140230890Y-86304523D01*
X140171435Y-86267164D01*
X140087693Y-86214545D01*
X140087690Y-86214544D01*
X139928059Y-86158687D01*
X139928057Y-86158686D01*
X139928055Y-86158686D01*
X139760000Y-86139751D01*
X139591944Y-86158686D01*
X139432309Y-86214544D01*
X139432306Y-86214545D01*
X139289110Y-86304523D01*
X139169523Y-86424110D01*
X139079545Y-86567306D01*
X139079543Y-86567310D01*
X139072218Y-86588245D01*
X139031772Y-86647566D01*
X138987114Y-86673349D01*
X138909310Y-86700574D01*
X138909306Y-86700576D01*
X138766110Y-86790554D01*
X138646523Y-86910141D01*
X138556545Y-87053337D01*
X138556544Y-87053340D01*
X138500686Y-87212975D01*
X138481751Y-87381031D01*
X138500686Y-87549086D01*
X138500686Y-87549088D01*
X138500687Y-87549090D01*
X138513521Y-87585768D01*
X138556543Y-87708720D01*
X138556577Y-87708789D01*
X138559741Y-87714403D01*
X138559955Y-87714830D01*
X138559957Y-87714834D01*
X138570711Y-87736239D01*
X138607344Y-87809158D01*
X138615015Y-87823288D01*
X138623352Y-87837545D01*
X138631581Y-87850675D01*
X138649284Y-87877088D01*
X138671776Y-87937753D01*
X138672505Y-87943834D01*
X138673000Y-87952088D01*
X138673000Y-100689680D01*
X138669651Y-100719973D01*
X138668431Y-100725424D01*
X138650814Y-100768455D01*
X138634296Y-100794976D01*
X138631925Y-100799016D01*
X138627603Y-100806378D01*
X138623219Y-100814313D01*
X138621089Y-100818169D01*
X138615288Y-100829315D01*
X138572267Y-100917241D01*
X138570171Y-100921005D01*
X138568781Y-100923892D01*
X138568187Y-100925377D01*
X138563538Y-100935670D01*
X138563534Y-100935680D01*
X138539702Y-100999607D01*
X138539701Y-100999612D01*
X138539594Y-101000340D01*
X138533299Y-101025891D01*
X138513686Y-101081944D01*
X138494751Y-101250000D01*
X138513686Y-101418055D01*
X138513686Y-101418057D01*
X138513687Y-101418059D01*
X138545050Y-101507690D01*
X138569544Y-101577690D01*
X138569545Y-101577693D01*
X138615538Y-101650889D01*
X138659523Y-101720890D01*
X138779110Y-101840477D01*
X138873729Y-101899930D01*
X138922306Y-101930454D01*
X138922307Y-101930454D01*
X138922310Y-101930456D01*
X139081941Y-101986313D01*
X139250000Y-102005249D01*
X139418059Y-101986313D01*
X139577690Y-101930456D01*
X139720890Y-101840477D01*
X139840477Y-101720890D01*
X139930456Y-101577690D01*
X139986313Y-101418059D01*
X140005249Y-101250000D01*
X139986313Y-101081941D01*
X139930456Y-100922310D01*
X139929849Y-100921344D01*
X139926977Y-100916322D01*
X139924049Y-100910666D01*
X139924048Y-100910663D01*
X139896043Y-100856567D01*
X139874800Y-100815531D01*
X139865449Y-100799017D01*
X139861255Y-100792220D01*
X139854502Y-100781273D01*
X139843813Y-100765334D01*
X139827518Y-100742923D01*
X139801765Y-100675904D01*
X139801000Y-100661358D01*
X139801000Y-98623452D01*
X139819582Y-98554102D01*
X139870350Y-98503334D01*
X139910905Y-98489994D01*
X139910461Y-98488047D01*
X139918046Y-98486314D01*
X139918059Y-98486313D01*
X140077690Y-98430456D01*
X140220890Y-98340477D01*
X140340477Y-98220890D01*
X140430456Y-98077690D01*
X140486313Y-97918059D01*
X140505249Y-97750000D01*
X140486313Y-97581941D01*
X140430456Y-97422310D01*
X140430453Y-97422306D01*
X140430420Y-97422236D01*
X140427260Y-97416631D01*
X140427043Y-97416199D01*
X140427042Y-97416196D01*
X140379653Y-97321870D01*
X140371983Y-97307740D01*
X140368906Y-97302479D01*
X140363646Y-97293483D01*
X140355418Y-97280355D01*
X140337713Y-97253938D01*
X140315216Y-97193225D01*
X140314493Y-97187198D01*
X140314000Y-97178937D01*
X140314000Y-93115975D01*
X140332582Y-93046625D01*
X140383350Y-92995857D01*
X140452700Y-92977275D01*
X140466296Y-92977943D01*
X140471951Y-92978500D01*
X140471953Y-92978500D01*
X142524814Y-92978500D01*
X142594164Y-92997082D01*
X142622890Y-93019124D01*
X143000876Y-93397110D01*
X143036774Y-93459288D01*
X143041500Y-93495186D01*
X143041500Y-96524813D01*
X143022918Y-96594163D01*
X143000876Y-96622889D01*
X141131327Y-98492437D01*
X141126282Y-98497009D01*
X141090438Y-98526426D01*
X141090426Y-98526437D01*
X140964407Y-98679991D01*
X140964404Y-98679996D01*
X140898794Y-98802746D01*
X140870759Y-98855195D01*
X140870756Y-98855202D01*
X140813092Y-99045292D01*
X140813091Y-99045295D01*
X140793620Y-99242998D01*
X140793620Y-99243000D01*
X140798166Y-99289154D01*
X140798500Y-99295956D01*
X140798500Y-103217814D01*
X140779918Y-103287164D01*
X140757876Y-103315890D01*
X139322890Y-104750876D01*
X139260712Y-104786774D01*
X139224814Y-104791500D01*
X136805958Y-104791500D01*
X136736608Y-104772918D01*
X136685840Y-104722150D01*
X136667258Y-104652800D01*
X136670097Y-104624880D01*
X136679999Y-104576693D01*
X136680000Y-104576687D01*
X136680000Y-104325001D01*
X136679999Y-104325000D01*
X135980000Y-104325000D01*
X135980000Y-103825000D01*
X136679999Y-103825000D01*
X136680000Y-103824999D01*
X136680000Y-103624288D01*
X136679999Y-103624280D01*
X136664582Y-103472671D01*
X136664580Y-103472660D01*
X136603696Y-103278610D01*
X136504995Y-103100785D01*
X136372519Y-102946468D01*
X136372518Y-102946467D01*
X136211690Y-102821978D01*
X136029097Y-102732413D01*
X136029089Y-102732410D01*
X135930000Y-102706753D01*
X135930000Y-103508889D01*
X135905543Y-103469390D01*
X135816038Y-103401799D01*
X135708160Y-103371105D01*
X135596479Y-103381454D01*
X135496078Y-103431448D01*
X135430000Y-103503930D01*
X135430000Y-102701632D01*
X135429999Y-102701632D01*
X135428060Y-102701930D01*
X135428050Y-102701932D01*
X135237336Y-102772564D01*
X135237328Y-102772568D01*
X135064735Y-102880147D01*
X135064734Y-102880147D01*
X134917331Y-103020265D01*
X134801144Y-103187195D01*
X134720939Y-103374096D01*
X134680000Y-103573306D01*
X134680000Y-103824999D01*
X134680001Y-103825000D01*
X135380000Y-103825000D01*
X135380000Y-104325000D01*
X134680001Y-104325000D01*
X134680000Y-104325001D01*
X134680000Y-104525719D01*
X134691496Y-104638768D01*
X134680025Y-104709642D01*
X134634654Y-104765286D01*
X134567540Y-104790788D01*
X134553508Y-104791500D01*
X123705186Y-104791500D01*
X123635836Y-104772918D01*
X123607110Y-104750876D01*
X122649124Y-103792890D01*
X122613226Y-103730712D01*
X122608500Y-103694814D01*
X122608500Y-101578241D01*
X122627082Y-101508891D01*
X122677850Y-101458123D01*
X122731671Y-101440413D01*
X122735491Y-101439982D01*
X122768059Y-101436313D01*
X122879192Y-101397425D01*
X122950786Y-101392061D01*
X122970802Y-101397424D01*
X123081941Y-101436313D01*
X123250000Y-101455249D01*
X123418059Y-101436313D01*
X123529192Y-101397425D01*
X123600786Y-101392061D01*
X123620802Y-101397424D01*
X123731941Y-101436313D01*
X123900000Y-101455249D01*
X124068059Y-101436313D01*
X124191692Y-101393051D01*
X124263286Y-101387687D01*
X124283302Y-101393050D01*
X124406941Y-101436313D01*
X124575000Y-101455249D01*
X124743059Y-101436313D01*
X124866692Y-101393051D01*
X124938286Y-101387687D01*
X124958302Y-101393050D01*
X125081941Y-101436313D01*
X125250000Y-101455249D01*
X125418059Y-101436313D01*
X125577690Y-101380456D01*
X125720890Y-101290477D01*
X125840477Y-101170890D01*
X125930456Y-101027690D01*
X125986313Y-100868059D01*
X126005249Y-100700000D01*
X125986313Y-100531941D01*
X125930456Y-100372310D01*
X125930454Y-100372307D01*
X125930454Y-100372306D01*
X125883369Y-100297372D01*
X125840477Y-100229110D01*
X125720890Y-100109523D01*
X125653900Y-100067430D01*
X125577693Y-100019545D01*
X125577690Y-100019544D01*
X125544522Y-100007938D01*
X125418059Y-99963687D01*
X125418057Y-99963686D01*
X125418055Y-99963686D01*
X125250000Y-99944751D01*
X125081943Y-99963686D01*
X124958309Y-100006947D01*
X124886713Y-100012312D01*
X124866691Y-100006947D01*
X124743056Y-99963686D01*
X124575000Y-99944751D01*
X124406943Y-99963686D01*
X124283309Y-100006947D01*
X124211713Y-100012312D01*
X124191691Y-100006947D01*
X124068056Y-99963686D01*
X123900000Y-99944751D01*
X123731942Y-99963686D01*
X123620808Y-100002573D01*
X123549213Y-100007938D01*
X123529192Y-100002573D01*
X123474409Y-99983404D01*
X123418059Y-99963687D01*
X123418057Y-99963686D01*
X123418059Y-99963686D01*
X123250000Y-99944751D01*
X123081942Y-99963686D01*
X122970808Y-100002573D01*
X122899213Y-100007938D01*
X122879192Y-100002573D01*
X122768058Y-99963686D01*
X122731668Y-99959586D01*
X122664835Y-99933354D01*
X122620072Y-99877221D01*
X122608500Y-99821758D01*
X122608500Y-93310000D01*
X132084751Y-93310000D01*
X132103686Y-93478055D01*
X132103686Y-93478057D01*
X132103687Y-93478059D01*
X132156885Y-93630092D01*
X132159544Y-93637690D01*
X132159545Y-93637693D01*
X132186974Y-93681345D01*
X132249523Y-93780890D01*
X132369110Y-93900477D01*
X132443542Y-93947246D01*
X132512306Y-93990454D01*
X132512307Y-93990454D01*
X132512310Y-93990456D01*
X132671941Y-94046313D01*
X132840000Y-94065249D01*
X133008059Y-94046313D01*
X133167690Y-93990456D01*
X133310890Y-93900477D01*
X133430477Y-93780890D01*
X133520456Y-93637690D01*
X133576313Y-93478059D01*
X133595249Y-93310000D01*
X133576313Y-93141941D01*
X133520456Y-92982310D01*
X133520453Y-92982306D01*
X133520420Y-92982236D01*
X133517260Y-92976631D01*
X133517043Y-92976199D01*
X133517042Y-92976196D01*
X133469653Y-92881870D01*
X133461983Y-92867740D01*
X133458375Y-92861571D01*
X133453646Y-92853483D01*
X133445418Y-92840355D01*
X133427713Y-92813938D01*
X133405216Y-92753225D01*
X133404493Y-92747198D01*
X133404000Y-92738937D01*
X133404000Y-91753619D01*
X133422582Y-91684269D01*
X133427477Y-91676409D01*
X133445418Y-91649642D01*
X133447788Y-91645860D01*
X133453646Y-91636515D01*
X133456863Y-91631012D01*
X133461982Y-91622258D01*
X133469652Y-91608131D01*
X133469655Y-91608127D01*
X133517254Y-91513379D01*
X133520420Y-91507762D01*
X133520450Y-91507699D01*
X133520456Y-91507690D01*
X133520459Y-91507679D01*
X133520668Y-91507247D01*
X133522686Y-91502247D01*
X133524945Y-91497339D01*
X133550175Y-91430341D01*
X133550178Y-91430316D01*
X133556475Y-91404750D01*
X133576313Y-91348059D01*
X133595249Y-91180000D01*
X133576313Y-91011941D01*
X133520456Y-90852310D01*
X133520454Y-90852307D01*
X133520454Y-90852306D01*
X133460763Y-90757310D01*
X133430477Y-90709110D01*
X133310890Y-90589523D01*
X133251435Y-90552164D01*
X133167693Y-90499545D01*
X133167690Y-90499544D01*
X133153341Y-90494523D01*
X133008059Y-90443687D01*
X133008057Y-90443686D01*
X133008055Y-90443686D01*
X132840000Y-90424751D01*
X132671944Y-90443686D01*
X132512309Y-90499544D01*
X132512306Y-90499545D01*
X132369110Y-90589523D01*
X132249523Y-90709110D01*
X132159545Y-90852306D01*
X132159544Y-90852309D01*
X132103686Y-91011944D01*
X132084751Y-91180000D01*
X132103686Y-91348055D01*
X132159543Y-91507689D01*
X132159577Y-91507758D01*
X132162741Y-91513372D01*
X132162955Y-91513799D01*
X132162957Y-91513803D01*
X132187301Y-91562259D01*
X132210344Y-91608127D01*
X132218015Y-91622257D01*
X132226352Y-91636514D01*
X132234581Y-91649644D01*
X132246247Y-91667050D01*
X132251894Y-91675476D01*
X132252284Y-91676057D01*
X132274776Y-91736722D01*
X132275505Y-91742803D01*
X132276000Y-91751057D01*
X132276000Y-92736372D01*
X132257418Y-92805722D01*
X132252520Y-92813586D01*
X132234605Y-92840317D01*
X132234581Y-92840355D01*
X132226415Y-92853381D01*
X132222247Y-92860504D01*
X132218078Y-92867628D01*
X132218017Y-92867741D01*
X132210366Y-92881828D01*
X132162734Y-92976638D01*
X132159575Y-92982242D01*
X132159324Y-92982764D01*
X132157356Y-92987641D01*
X132154925Y-92992941D01*
X132154921Y-92992950D01*
X132129825Y-93059652D01*
X132129823Y-93059662D01*
X132129817Y-93059704D01*
X132123522Y-93085254D01*
X132103686Y-93141944D01*
X132084751Y-93310000D01*
X122608500Y-93310000D01*
X122608500Y-87652956D01*
X122608834Y-87646154D01*
X122613380Y-87600000D01*
X122613380Y-87599998D01*
X122605163Y-87516567D01*
X122593909Y-87402299D01*
X122543016Y-87234530D01*
X122536241Y-87212196D01*
X122536240Y-87212194D01*
X122536239Y-87212191D01*
X122467412Y-87083426D01*
X122442595Y-87036996D01*
X122316568Y-86883432D01*
X122280710Y-86854004D01*
X122275674Y-86849440D01*
X121550563Y-86124328D01*
X121545990Y-86119283D01*
X121516568Y-86083432D01*
X121516565Y-86083429D01*
X121516563Y-86083427D01*
X121427040Y-86009958D01*
X121363004Y-85957405D01*
X121352984Y-85952049D01*
X121187808Y-85863760D01*
X121187797Y-85863756D01*
X120997707Y-85806092D01*
X120997704Y-85806091D01*
X120800002Y-85786620D01*
X120799999Y-85786620D01*
X120787415Y-85787859D01*
X120753838Y-85791166D01*
X120747043Y-85791500D01*
X118625186Y-85791500D01*
X118555836Y-85772918D01*
X118527110Y-85750876D01*
X118474124Y-85697890D01*
X118438226Y-85635712D01*
X118433500Y-85599814D01*
X118433500Y-80250000D01*
X133019751Y-80250000D01*
X133038686Y-80418055D01*
X133038686Y-80418057D01*
X133038687Y-80418059D01*
X133094544Y-80577690D01*
X133094545Y-80577693D01*
X133147164Y-80661435D01*
X133184523Y-80720890D01*
X133304110Y-80840477D01*
X133367736Y-80880456D01*
X133447306Y-80930454D01*
X133447307Y-80930454D01*
X133447310Y-80930456D01*
X133606941Y-80986313D01*
X133775000Y-81005249D01*
X133898272Y-80991359D01*
X133969264Y-81002060D01*
X134025397Y-81046824D01*
X134051628Y-81113657D01*
X134052500Y-81129187D01*
X134052500Y-97383581D01*
X134033918Y-97452931D01*
X133983150Y-97503699D01*
X133957413Y-97515246D01*
X133918537Y-97528123D01*
X133909183Y-97531603D01*
X133909182Y-97531604D01*
X133868383Y-97550124D01*
X133862624Y-97552434D01*
X133842313Y-97559542D01*
X133842305Y-97559546D01*
X133699110Y-97649523D01*
X133579523Y-97769110D01*
X133489545Y-97912306D01*
X133489544Y-97912309D01*
X133433686Y-98071944D01*
X133414751Y-98240000D01*
X133433686Y-98408055D01*
X133433686Y-98408057D01*
X133433687Y-98408059D01*
X133474802Y-98525559D01*
X133489544Y-98567690D01*
X133489545Y-98567693D01*
X133527789Y-98628557D01*
X133579523Y-98710890D01*
X133699110Y-98830477D01*
X133793729Y-98889930D01*
X133842306Y-98920454D01*
X133842307Y-98920454D01*
X133842310Y-98920456D01*
X134001941Y-98976313D01*
X134170000Y-98995249D01*
X134338059Y-98976313D01*
X134497690Y-98920456D01*
X134503450Y-98916836D01*
X134572054Y-98895670D01*
X134642052Y-98911642D01*
X134694685Y-98960473D01*
X134715852Y-99029078D01*
X134713110Y-99062193D01*
X134680000Y-99223306D01*
X134680000Y-99624999D01*
X134680001Y-99625000D01*
X135380000Y-99625000D01*
X135380000Y-100125000D01*
X134680001Y-100125000D01*
X134680000Y-100125001D01*
X134680000Y-100475719D01*
X134695417Y-100627328D01*
X134695419Y-100627339D01*
X134756303Y-100821389D01*
X134855004Y-100999214D01*
X134987480Y-101153531D01*
X134987481Y-101153532D01*
X135148309Y-101278021D01*
X135330902Y-101367586D01*
X135330901Y-101367586D01*
X135430000Y-101393244D01*
X135430000Y-100591110D01*
X135454457Y-100630610D01*
X135543962Y-100698201D01*
X135651840Y-100728895D01*
X135763521Y-100718546D01*
X135863922Y-100668552D01*
X135930000Y-100596069D01*
X135930000Y-101398365D01*
X135931948Y-101398067D01*
X136122663Y-101327435D01*
X136122671Y-101327431D01*
X136295264Y-101219852D01*
X136295265Y-101219852D01*
X136442668Y-101079734D01*
X136558859Y-100912799D01*
X136562272Y-100906652D01*
X136563760Y-100907478D01*
X136602429Y-100858380D01*
X136669102Y-100831744D01*
X136740160Y-100842013D01*
X136769904Y-100859437D01*
X136781141Y-100868059D01*
X136819767Y-100897698D01*
X136959764Y-100955687D01*
X137072280Y-100970500D01*
X137072282Y-100970500D01*
X137147718Y-100970500D01*
X137147720Y-100970500D01*
X137260236Y-100955687D01*
X137400233Y-100897698D01*
X137520451Y-100805451D01*
X137612698Y-100685233D01*
X137670687Y-100545236D01*
X137672438Y-100531941D01*
X137690466Y-100395003D01*
X137690466Y-100394996D01*
X137670688Y-100244767D01*
X137670687Y-100244765D01*
X137670687Y-100244764D01*
X137612698Y-100104767D01*
X137546581Y-100018602D01*
X137520454Y-99984552D01*
X137520447Y-99984545D01*
X137437012Y-99920524D01*
X137400233Y-99892302D01*
X137260236Y-99834313D01*
X137260235Y-99834312D01*
X137260233Y-99834312D01*
X137147726Y-99819500D01*
X137147720Y-99819500D01*
X137072280Y-99819500D01*
X137072273Y-99819500D01*
X136959767Y-99834312D01*
X136959765Y-99834312D01*
X136871779Y-99870758D01*
X136800597Y-99880129D01*
X136734265Y-99852654D01*
X136690558Y-99795695D01*
X136680000Y-99742616D01*
X136680000Y-99274288D01*
X136679999Y-99274280D01*
X136664582Y-99122671D01*
X136664580Y-99122660D01*
X136603696Y-98928610D01*
X136504995Y-98750785D01*
X136372519Y-98596468D01*
X136372518Y-98596467D01*
X136211690Y-98471978D01*
X136029097Y-98382413D01*
X136029089Y-98382410D01*
X135930000Y-98356753D01*
X135930000Y-99158889D01*
X135905543Y-99119390D01*
X135816038Y-99051799D01*
X135708160Y-99021105D01*
X135596479Y-99031454D01*
X135496078Y-99081448D01*
X135430000Y-99153930D01*
X135430000Y-98351632D01*
X135429999Y-98351632D01*
X135428060Y-98351930D01*
X135428050Y-98351932D01*
X135237336Y-98422564D01*
X135237328Y-98422568D01*
X135138926Y-98483903D01*
X135070243Y-98504817D01*
X135000305Y-98488587D01*
X134947852Y-98439563D01*
X134926938Y-98370880D01*
X134930384Y-98335125D01*
X134930196Y-98335938D01*
X134936342Y-98304811D01*
X134963353Y-98245986D01*
X134967123Y-98241190D01*
X134972614Y-98235001D01*
X134985948Y-98221667D01*
X134992770Y-98215683D01*
X135018750Y-98195750D01*
X135109153Y-98077933D01*
X135165983Y-97940734D01*
X135180500Y-97830468D01*
X135185367Y-97793500D01*
X135181093Y-97761041D01*
X135180500Y-97751984D01*
X135180500Y-91661718D01*
X135199082Y-91592368D01*
X135249850Y-91541600D01*
X135319200Y-91523018D01*
X135388550Y-91541600D01*
X135417271Y-91563638D01*
X135529110Y-91675477D01*
X135589779Y-91713598D01*
X135672306Y-91765454D01*
X135672307Y-91765454D01*
X135672310Y-91765456D01*
X135831941Y-91821313D01*
X136000000Y-91840249D01*
X136168059Y-91821313D01*
X136327690Y-91765456D01*
X136470890Y-91675477D01*
X136590477Y-91555890D01*
X136680456Y-91412690D01*
X136736313Y-91253059D01*
X136755249Y-91085000D01*
X136736313Y-90916941D01*
X136680456Y-90757310D01*
X136680454Y-90757307D01*
X136680454Y-90757306D01*
X136608162Y-90642256D01*
X136590477Y-90614110D01*
X136470890Y-90494523D01*
X136411435Y-90457164D01*
X136327693Y-90404545D01*
X136327690Y-90404544D01*
X136168059Y-90348687D01*
X136168057Y-90348686D01*
X136168055Y-90348686D01*
X136000000Y-90329751D01*
X135831944Y-90348686D01*
X135672309Y-90404544D01*
X135672306Y-90404545D01*
X135529110Y-90494523D01*
X135417273Y-90606359D01*
X135355098Y-90642256D01*
X135283302Y-90642256D01*
X135221124Y-90606358D01*
X135185226Y-90544180D01*
X135180500Y-90508282D01*
X135180500Y-79893508D01*
X135199082Y-79824158D01*
X135249850Y-79773390D01*
X135290883Y-79759896D01*
X135290461Y-79758047D01*
X135298046Y-79756314D01*
X135298059Y-79756313D01*
X135457690Y-79700456D01*
X135457696Y-79700451D01*
X135457756Y-79700423D01*
X135463373Y-79697258D01*
X135558129Y-79649653D01*
X135558131Y-79649652D01*
X135572258Y-79641982D01*
X135581254Y-79636721D01*
X135586515Y-79633646D01*
X135599640Y-79625419D01*
X135599642Y-79625418D01*
X135626055Y-79607715D01*
X135686807Y-79585212D01*
X135687176Y-79585167D01*
X135692838Y-79584491D01*
X135701078Y-79584000D01*
X144316376Y-79584000D01*
X144385726Y-79602582D01*
X144393585Y-79607477D01*
X144420353Y-79625417D01*
X144423008Y-79627081D01*
X144433483Y-79633646D01*
X144443556Y-79639536D01*
X144447740Y-79641983D01*
X144454805Y-79645818D01*
X144461871Y-79649654D01*
X144481516Y-79659523D01*
X144556636Y-79697262D01*
X144562243Y-79700423D01*
X144562304Y-79700452D01*
X144562310Y-79700456D01*
X144562315Y-79700457D01*
X144562752Y-79700668D01*
X144567754Y-79702688D01*
X144572660Y-79704945D01*
X144639658Y-79730175D01*
X144639676Y-79730177D01*
X144639678Y-79730178D01*
X144665256Y-79736477D01*
X144721941Y-79756313D01*
X144890000Y-79775249D01*
X145058059Y-79756313D01*
X145158918Y-79721020D01*
X145230512Y-79715656D01*
X145295199Y-79746808D01*
X145335643Y-79806129D01*
X145341008Y-79877724D01*
X145335643Y-79897747D01*
X145288686Y-80031944D01*
X145269751Y-80200000D01*
X145288686Y-80368055D01*
X145288686Y-80368057D01*
X145288687Y-80368059D01*
X145306183Y-80418059D01*
X145344544Y-80527690D01*
X145344545Y-80527693D01*
X145375961Y-80577690D01*
X145434523Y-80670890D01*
X145554110Y-80790477D01*
X145633683Y-80840476D01*
X145697306Y-80880454D01*
X145697307Y-80880454D01*
X145697310Y-80880456D01*
X145856941Y-80936313D01*
X146025000Y-80955249D01*
X146193059Y-80936313D01*
X146352690Y-80880456D01*
X146495890Y-80790477D01*
X146615477Y-80670890D01*
X146705456Y-80527690D01*
X146761313Y-80368059D01*
X146780249Y-80200000D01*
X146761313Y-80031941D01*
X146705456Y-79872310D01*
X146705454Y-79872307D01*
X146705454Y-79872306D01*
X146674930Y-79823729D01*
X146615477Y-79729110D01*
X146495890Y-79609523D01*
X146404313Y-79551981D01*
X146352693Y-79519545D01*
X146352690Y-79519544D01*
X146193059Y-79463687D01*
X146193057Y-79463686D01*
X146193055Y-79463686D01*
X146025000Y-79444751D01*
X145856942Y-79463686D01*
X145756081Y-79498978D01*
X145684485Y-79504343D01*
X145619799Y-79473190D01*
X145579356Y-79413869D01*
X145573991Y-79342273D01*
X145579351Y-79322268D01*
X145626313Y-79188059D01*
X145645249Y-79020000D01*
X145626313Y-78851941D01*
X145570456Y-78692310D01*
X145570454Y-78692307D01*
X145570454Y-78692306D01*
X145539930Y-78643729D01*
X145480477Y-78549110D01*
X145360890Y-78429523D01*
X145298537Y-78390344D01*
X145217693Y-78339545D01*
X145217690Y-78339544D01*
X145139296Y-78312113D01*
X145058059Y-78283687D01*
X145058057Y-78283686D01*
X145058055Y-78283686D01*
X144890000Y-78264751D01*
X144721943Y-78283686D01*
X144570370Y-78336723D01*
X144498774Y-78342088D01*
X144434088Y-78310936D01*
X144393644Y-78251615D01*
X144388279Y-78180019D01*
X144393642Y-78160003D01*
X144436313Y-78038059D01*
X144455249Y-77870000D01*
X144436313Y-77701941D01*
X144380456Y-77542310D01*
X144380454Y-77542307D01*
X144380454Y-77542306D01*
X144322453Y-77450000D01*
X144290477Y-77399110D01*
X144170890Y-77279523D01*
X144111435Y-77242164D01*
X144027693Y-77189545D01*
X144027690Y-77189544D01*
X143978175Y-77172218D01*
X143868059Y-77133687D01*
X143868057Y-77133686D01*
X143868055Y-77133686D01*
X143700000Y-77114751D01*
X143531944Y-77133686D01*
X143372309Y-77189544D01*
X143372306Y-77189545D01*
X143229110Y-77279523D01*
X143109523Y-77399110D01*
X143019545Y-77542306D01*
X143019544Y-77542309D01*
X142963686Y-77701944D01*
X142944751Y-77870000D01*
X142963686Y-78038055D01*
X142963686Y-78038057D01*
X142963687Y-78038059D01*
X142995544Y-78129102D01*
X143019544Y-78197690D01*
X143019547Y-78197697D01*
X143048332Y-78243507D01*
X143069495Y-78312113D01*
X143053519Y-78382110D01*
X143004685Y-78434740D01*
X142936079Y-78455903D01*
X142930892Y-78456000D01*
X141463666Y-78456000D01*
X141394316Y-78437418D01*
X141343548Y-78386650D01*
X141324966Y-78317300D01*
X141343548Y-78247950D01*
X141394316Y-78197182D01*
X141417857Y-78186383D01*
X141418056Y-78186313D01*
X141418059Y-78186313D01*
X141577690Y-78130456D01*
X141720890Y-78040477D01*
X141840477Y-77920890D01*
X141930456Y-77777690D01*
X141986313Y-77618059D01*
X142005249Y-77450000D01*
X141986313Y-77281941D01*
X141930456Y-77122310D01*
X141930454Y-77122307D01*
X141930454Y-77122306D01*
X141899930Y-77073729D01*
X141840477Y-76979110D01*
X141720890Y-76859523D01*
X141657124Y-76819456D01*
X141577693Y-76769545D01*
X141577690Y-76769544D01*
X141560697Y-76763598D01*
X141418059Y-76713687D01*
X141418057Y-76713686D01*
X141418055Y-76713686D01*
X141250000Y-76694751D01*
X141081944Y-76713686D01*
X140922309Y-76769544D01*
X140922306Y-76769545D01*
X140779110Y-76859523D01*
X140659523Y-76979110D01*
X140569545Y-77122306D01*
X140569544Y-77122309D01*
X140513686Y-77281944D01*
X140494751Y-77450000D01*
X140513686Y-77618055D01*
X140513686Y-77618057D01*
X140513687Y-77618059D01*
X140554740Y-77735381D01*
X140569544Y-77777690D01*
X140569545Y-77777693D01*
X140622164Y-77861435D01*
X140659523Y-77920890D01*
X140779110Y-78040477D01*
X140858544Y-78090389D01*
X140922306Y-78130454D01*
X140922307Y-78130454D01*
X140922310Y-78130456D01*
X141081941Y-78186313D01*
X141081943Y-78186313D01*
X141082143Y-78186383D01*
X141141464Y-78226827D01*
X141172616Y-78291513D01*
X141167251Y-78363109D01*
X141126807Y-78422430D01*
X141062121Y-78453582D01*
X141036334Y-78456000D01*
X138867033Y-78456000D01*
X138797683Y-78437418D01*
X138746915Y-78386650D01*
X138728333Y-78317300D01*
X138746915Y-78247950D01*
X138797683Y-78197182D01*
X138821219Y-78186384D01*
X138838414Y-78180368D01*
X138981614Y-78090389D01*
X139101201Y-77970802D01*
X139191180Y-77827602D01*
X139247037Y-77667971D01*
X139265973Y-77499912D01*
X139247037Y-77331853D01*
X139191180Y-77172222D01*
X139191178Y-77172219D01*
X139191178Y-77172218D01*
X139152870Y-77111252D01*
X139101201Y-77029022D01*
X138981614Y-76909435D01*
X138883334Y-76847681D01*
X138838417Y-76819457D01*
X138838414Y-76819456D01*
X138748703Y-76788065D01*
X138678783Y-76763599D01*
X138678781Y-76763598D01*
X138678779Y-76763598D01*
X138510724Y-76744663D01*
X138342668Y-76763598D01*
X138183031Y-76819456D01*
X138183030Y-76819457D01*
X138182031Y-76820085D01*
X138177055Y-76822931D01*
X138090011Y-76868053D01*
X138009834Y-76919752D01*
X138007163Y-76921659D01*
X138006748Y-76921078D01*
X137943849Y-76948073D01*
X137924002Y-76949500D01*
X135188016Y-76949500D01*
X135178958Y-76948906D01*
X135156682Y-76945973D01*
X135146501Y-76944633D01*
X135146498Y-76944633D01*
X135109532Y-76949500D01*
X134999269Y-76964016D01*
X134999267Y-76964016D01*
X134862065Y-77020848D01*
X134744252Y-77111247D01*
X134744247Y-77111252D01*
X134724317Y-77137225D01*
X134718331Y-77144051D01*
X134247046Y-77615334D01*
X134240221Y-77621320D01*
X134214252Y-77641248D01*
X134214244Y-77641256D01*
X134179024Y-77687154D01*
X134179014Y-77687169D01*
X134123847Y-77759065D01*
X134067016Y-77896267D01*
X134067015Y-77896269D01*
X134047633Y-78043496D01*
X134047633Y-78043499D01*
X134051906Y-78075952D01*
X134052500Y-78085015D01*
X134052500Y-79370812D01*
X134033918Y-79440162D01*
X133983150Y-79490930D01*
X133913800Y-79509512D01*
X133898271Y-79508640D01*
X133775000Y-79494751D01*
X133606944Y-79513686D01*
X133447309Y-79569544D01*
X133447306Y-79569545D01*
X133304110Y-79659523D01*
X133184523Y-79779110D01*
X133094545Y-79922306D01*
X133094544Y-79922309D01*
X133038686Y-80081944D01*
X133019751Y-80250000D01*
X118433500Y-80250000D01*
X118433500Y-75585186D01*
X118452082Y-75515836D01*
X118474124Y-75487110D01*
X119512110Y-74449124D01*
X119574288Y-74413226D01*
X119610186Y-74408500D01*
X120242756Y-74408500D01*
X120312106Y-74427082D01*
X120362874Y-74477850D01*
X120365078Y-74481816D01*
X120407405Y-74561004D01*
X120513681Y-74690502D01*
X120533432Y-74714568D01*
X120686996Y-74840595D01*
X120764576Y-74882062D01*
X120862191Y-74934239D01*
X120862196Y-74934241D01*
X121052299Y-74991908D01*
X121228399Y-75009252D01*
X121249999Y-75011380D01*
X121250000Y-75011380D01*
X121250001Y-75011380D01*
X121269473Y-75009462D01*
X121447701Y-74991908D01*
X121637804Y-74934241D01*
X121813004Y-74840595D01*
X121966568Y-74714568D01*
X122092595Y-74561004D01*
X122186241Y-74385804D01*
X122243908Y-74195701D01*
X122258500Y-74047547D01*
X122258500Y-73452954D01*
X122258834Y-73446152D01*
X122263380Y-73399999D01*
X122263380Y-73399998D01*
X122249828Y-73262408D01*
X122243908Y-73202299D01*
X122186241Y-73012196D01*
X122186239Y-73012191D01*
X122134062Y-72914576D01*
X122092595Y-72836996D01*
X121966568Y-72683432D01*
X121813004Y-72557405D01*
X121802514Y-72551798D01*
X121637808Y-72463760D01*
X121637803Y-72463758D01*
X121447702Y-72406092D01*
X121299547Y-72391500D01*
X121250001Y-72386620D01*
X121249999Y-72386620D01*
X121238083Y-72387793D01*
X121203841Y-72391166D01*
X121197045Y-72391500D01*
X119187955Y-72391500D01*
X119181158Y-72391166D01*
X119146916Y-72387793D01*
X119135001Y-72386620D01*
X119134999Y-72386620D01*
X119085453Y-72391500D01*
X118937297Y-72406092D01*
X118747196Y-72463758D01*
X118747191Y-72463760D01*
X118571996Y-72557404D01*
X118571991Y-72557407D01*
X118418437Y-72683426D01*
X118418426Y-72683438D01*
X118389009Y-72719282D01*
X118384437Y-72724327D01*
X116749327Y-74359437D01*
X116744282Y-74364009D01*
X116708438Y-74393426D01*
X116708426Y-74393437D01*
X116582407Y-74546991D01*
X116582407Y-74546992D01*
X116536133Y-74633564D01*
X116487053Y-74685965D01*
X116418348Y-74706806D01*
X116348427Y-74690502D01*
X116296026Y-74641422D01*
X116276938Y-74590619D01*
X116227581Y-74289551D01*
X116227579Y-74289542D01*
X116131849Y-73944756D01*
X115999401Y-73612340D01*
X115999390Y-73612315D01*
X115831782Y-73296173D01*
X115831780Y-73296169D01*
X115630974Y-73000003D01*
X115630969Y-72999996D01*
X115503556Y-72849996D01*
X114297733Y-74055819D01*
X114134870Y-73865130D01*
X113944179Y-73702265D01*
X115152742Y-72493702D01*
X115139519Y-72481176D01*
X114854634Y-72264612D01*
X114854630Y-72264609D01*
X114843720Y-72258045D01*
X114793878Y-72206368D01*
X114776552Y-72136694D01*
X114796384Y-72067691D01*
X114848061Y-72017849D01*
X114915229Y-72000500D01*
X132361300Y-72000500D01*
X132430650Y-72019082D01*
G37*
%TD.AperFunction*%
%TD*%
%TA.AperFunction,Conductor*%
%TO.N,/D+*%
G36*
X139811056Y-97253427D02*
G01*
X139814438Y-97260675D01*
X139822877Y-97356671D01*
X139848330Y-97428627D01*
X139848333Y-97428633D01*
X139885845Y-97487690D01*
X139931192Y-97555350D01*
X139931561Y-97555981D01*
X139975341Y-97643125D01*
X139975993Y-97652056D01*
X139970138Y-97658832D01*
X139969403Y-97659170D01*
X139754517Y-97749109D01*
X139745563Y-97749142D01*
X139745483Y-97749109D01*
X139530596Y-97659170D01*
X139524287Y-97652815D01*
X139524320Y-97643860D01*
X139524651Y-97643139D01*
X139568442Y-97555972D01*
X139568806Y-97555350D01*
X139581049Y-97537081D01*
X139614154Y-97487690D01*
X139651667Y-97428630D01*
X139677121Y-97356669D01*
X139685561Y-97260674D01*
X139689699Y-97252734D01*
X139697216Y-97250000D01*
X139802783Y-97250000D01*
X139811056Y-97253427D01*
G37*
%TD.AperFunction*%
%TD*%
%TA.AperFunction,Conductor*%
%TO.N,/D+*%
G36*
X139979294Y-86985784D02*
G01*
X139985603Y-86992140D01*
X139985570Y-87001094D01*
X139985182Y-87001927D01*
X139970319Y-87030832D01*
X139968444Y-87033225D01*
X139968554Y-87033320D01*
X139883174Y-87131856D01*
X139829359Y-87249693D01*
X139829359Y-87249695D01*
X139824428Y-87283988D01*
X139824044Y-87285447D01*
X139824066Y-87285453D01*
X139823879Y-87286236D01*
X139823419Y-87290966D01*
X139823387Y-87291231D01*
X139810924Y-87377918D01*
X139810924Y-87377920D01*
X139811172Y-87379648D01*
X139808956Y-87388324D01*
X139801254Y-87392892D01*
X139799591Y-87393011D01*
X139703833Y-87393011D01*
X139695560Y-87389584D01*
X139692353Y-87381844D01*
X139692252Y-87381859D01*
X139692194Y-87381459D01*
X139692133Y-87381311D01*
X139692133Y-87381031D01*
X139673697Y-87252806D01*
X139672277Y-87249695D01*
X139619882Y-87134968D01*
X139574993Y-87083162D01*
X139573338Y-87080668D01*
X139548802Y-87030832D01*
X139534522Y-87001828D01*
X139533943Y-86992893D01*
X139539852Y-86986164D01*
X139540473Y-86985881D01*
X139755484Y-86895889D01*
X139764437Y-86895857D01*
X139979294Y-86985784D01*
G37*
%TD.AperFunction*%
%TD*%
%TA.AperFunction,Conductor*%
%TO.N,/D-*%
G36*
X139298184Y-100756013D02*
G01*
X139301553Y-100763122D01*
X139311177Y-100859393D01*
X139311178Y-100859396D01*
X139339754Y-100930534D01*
X139381039Y-100988446D01*
X139429322Y-101054850D01*
X139430248Y-101056351D01*
X139434230Y-101064042D01*
X139475134Y-101143057D01*
X139475894Y-101151980D01*
X139470123Y-101158826D01*
X139469261Y-101159229D01*
X139254517Y-101249109D01*
X139245563Y-101249142D01*
X139245483Y-101249109D01*
X139030475Y-101159119D01*
X139024166Y-101152763D01*
X139024199Y-101143809D01*
X139024471Y-101143207D01*
X139066592Y-101057118D01*
X139066871Y-101056613D01*
X139108981Y-100989002D01*
X139142845Y-100929707D01*
X139165341Y-100857919D01*
X139172664Y-100763382D01*
X139176719Y-100755399D01*
X139184329Y-100752586D01*
X139289911Y-100752586D01*
X139298184Y-100756013D01*
G37*
%TD.AperFunction*%
%TD*%
%TA.AperFunction,Conductor*%
%TO.N,/D-*%
G36*
X139456404Y-87471861D02*
G01*
X139462712Y-87478216D01*
X139462679Y-87487170D01*
X139462341Y-87487905D01*
X139418561Y-87575047D01*
X139418192Y-87575678D01*
X139372845Y-87643339D01*
X139335333Y-87702395D01*
X139335330Y-87702401D01*
X139309877Y-87774358D01*
X139301438Y-87870356D01*
X139297300Y-87878297D01*
X139289783Y-87881031D01*
X139184216Y-87881031D01*
X139175943Y-87877604D01*
X139172561Y-87870356D01*
X139164121Y-87774361D01*
X139138667Y-87702399D01*
X139138665Y-87702395D01*
X139101154Y-87643339D01*
X139055806Y-87575678D01*
X139055437Y-87575047D01*
X139011658Y-87487905D01*
X139011006Y-87478974D01*
X139016861Y-87472198D01*
X139017568Y-87471872D01*
X139232484Y-87381920D01*
X139241436Y-87381888D01*
X139456404Y-87471861D01*
G37*
%TD.AperFunction*%
%TD*%
%TA.AperFunction,Conductor*%
%TO.N,PWM_3*%
G36*
X135236139Y-78794320D02*
G01*
X135236868Y-78794655D01*
X135324016Y-78838437D01*
X135324647Y-78838806D01*
X135392308Y-78884154D01*
X135451364Y-78921665D01*
X135451370Y-78921668D01*
X135523327Y-78947120D01*
X135523330Y-78947121D01*
X135619325Y-78955561D01*
X135627266Y-78959699D01*
X135630000Y-78967216D01*
X135630000Y-79072783D01*
X135626573Y-79081056D01*
X135619325Y-79084438D01*
X135523327Y-79092877D01*
X135451370Y-79118330D01*
X135451364Y-79118333D01*
X135392308Y-79155845D01*
X135324647Y-79201192D01*
X135324016Y-79201561D01*
X135236874Y-79245341D01*
X135227943Y-79245993D01*
X135221167Y-79240138D01*
X135220836Y-79239420D01*
X135130889Y-79024515D01*
X135130857Y-79015563D01*
X135220830Y-78800594D01*
X135227184Y-78794287D01*
X135236139Y-78794320D01*
G37*
%TD.AperFunction*%
%TD*%
%TA.AperFunction,Conductor*%
%TO.N,PWM_3*%
G36*
X144798832Y-78799861D02*
G01*
X144799170Y-78800596D01*
X144889109Y-79015483D01*
X144889142Y-79024438D01*
X144889109Y-79024517D01*
X144799170Y-79239403D01*
X144792814Y-79245712D01*
X144783860Y-79245679D01*
X144783125Y-79245341D01*
X144695981Y-79201561D01*
X144695350Y-79201192D01*
X144627690Y-79155845D01*
X144568633Y-79118333D01*
X144568627Y-79118330D01*
X144496671Y-79092877D01*
X144400675Y-79084438D01*
X144392734Y-79080300D01*
X144390000Y-79072783D01*
X144390000Y-78967216D01*
X144393427Y-78958943D01*
X144400673Y-78955561D01*
X144496669Y-78947121D01*
X144568630Y-78921667D01*
X144627690Y-78884154D01*
X144695350Y-78838806D01*
X144695972Y-78838442D01*
X144783126Y-78794657D01*
X144792056Y-78794006D01*
X144798832Y-78799861D01*
G37*
%TD.AperFunction*%
%TD*%
%TA.AperFunction,Conductor*%
%TO.N,/IO0*%
G36*
X133059404Y-91270830D02*
G01*
X133065712Y-91277185D01*
X133065679Y-91286139D01*
X133065341Y-91286874D01*
X133021561Y-91374016D01*
X133021192Y-91374647D01*
X132975845Y-91442308D01*
X132938333Y-91501364D01*
X132938330Y-91501370D01*
X132912877Y-91573327D01*
X132904438Y-91669325D01*
X132900300Y-91677266D01*
X132892783Y-91680000D01*
X132787216Y-91680000D01*
X132778943Y-91676573D01*
X132775561Y-91669325D01*
X132767121Y-91573330D01*
X132741667Y-91501368D01*
X132741665Y-91501364D01*
X132704154Y-91442308D01*
X132658806Y-91374647D01*
X132658437Y-91374016D01*
X132614658Y-91286874D01*
X132614006Y-91277943D01*
X132619861Y-91271167D01*
X132620568Y-91270841D01*
X132835484Y-91180889D01*
X132844436Y-91180857D01*
X133059404Y-91270830D01*
G37*
%TD.AperFunction*%
%TD*%
%TA.AperFunction,Conductor*%
%TO.N,/IO0*%
G36*
X132901056Y-92813427D02*
G01*
X132904438Y-92820675D01*
X132912877Y-92916671D01*
X132938330Y-92988627D01*
X132938333Y-92988633D01*
X132975845Y-93047690D01*
X133021192Y-93115350D01*
X133021561Y-93115981D01*
X133065341Y-93203125D01*
X133065993Y-93212056D01*
X133060138Y-93218832D01*
X133059403Y-93219170D01*
X132844517Y-93309109D01*
X132835563Y-93309142D01*
X132835483Y-93309109D01*
X132620596Y-93219170D01*
X132614287Y-93212815D01*
X132614320Y-93203860D01*
X132614651Y-93203139D01*
X132658442Y-93115972D01*
X132658806Y-93115350D01*
X132671049Y-93097081D01*
X132704154Y-93047690D01*
X132741667Y-92988630D01*
X132767121Y-92916669D01*
X132775561Y-92820674D01*
X132779699Y-92812734D01*
X132787216Y-92810000D01*
X132892783Y-92810000D01*
X132901056Y-92813427D01*
G37*
%TD.AperFunction*%
%TD*%
%TA.AperFunction,Conductor*%
%TO.N,/EN*%
G36*
X134486229Y-97849123D02*
G01*
X134560876Y-97923770D01*
X134564303Y-97932043D01*
X134561569Y-97939560D01*
X134499659Y-98013402D01*
X134499658Y-98013405D01*
X134466773Y-98082289D01*
X134451537Y-98150576D01*
X134435759Y-98230485D01*
X134435576Y-98231184D01*
X134404912Y-98323768D01*
X134399057Y-98330544D01*
X134390126Y-98331196D01*
X134389368Y-98330915D01*
X134173824Y-98242564D01*
X134167468Y-98236255D01*
X134167435Y-98236175D01*
X134165389Y-98231184D01*
X134079084Y-98020630D01*
X134079117Y-98011677D01*
X134085473Y-98005368D01*
X134086212Y-98005093D01*
X134178826Y-97974417D01*
X134179493Y-97974241D01*
X134259422Y-97958462D01*
X134327710Y-97943226D01*
X134396594Y-97910340D01*
X134470441Y-97848429D01*
X134478981Y-97845741D01*
X134486229Y-97849123D01*
G37*
%TD.AperFunction*%
%TD*%
%TA.AperFunction,Conductor*%
%TO.N,/EN*%
G36*
X138419549Y-77279789D02*
G01*
X138419955Y-77280656D01*
X138509833Y-77495395D01*
X138509866Y-77504349D01*
X138509833Y-77504429D01*
X138419841Y-77719442D01*
X138413485Y-77725751D01*
X138404531Y-77725718D01*
X138403911Y-77725437D01*
X138317901Y-77683405D01*
X138317384Y-77683120D01*
X138249785Y-77641163D01*
X138190488Y-77607469D01*
X138190483Y-77607466D01*
X138190480Y-77607465D01*
X138190477Y-77607464D01*
X138118702Y-77585102D01*
X138024229Y-77577831D01*
X138016243Y-77573780D01*
X138013427Y-77566166D01*
X138013427Y-77462200D01*
X138016854Y-77453927D01*
X138025127Y-77450500D01*
X138064773Y-77450500D01*
X138068341Y-77449451D01*
X138093070Y-77442190D01*
X138095158Y-77441783D01*
X138120244Y-77439262D01*
X138165801Y-77420861D01*
X138166275Y-77420696D01*
X138189069Y-77414004D01*
X138298049Y-77343967D01*
X138319201Y-77319555D01*
X138322645Y-77316842D01*
X138403779Y-77274785D01*
X138412700Y-77274021D01*
X138419549Y-77279789D01*
G37*
%TD.AperFunction*%
%TD*%
%TA.AperFunction,Conductor*%
%TO.N,/TX*%
G36*
X144268832Y-83069861D02*
G01*
X144269170Y-83070596D01*
X144359109Y-83285483D01*
X144359142Y-83294438D01*
X144359109Y-83294517D01*
X144269170Y-83509403D01*
X144262814Y-83515712D01*
X144253860Y-83515679D01*
X144253125Y-83515341D01*
X144165981Y-83471561D01*
X144165350Y-83471192D01*
X144097690Y-83425845D01*
X144038633Y-83388333D01*
X144038627Y-83388330D01*
X143966671Y-83362877D01*
X143870675Y-83354438D01*
X143862734Y-83350300D01*
X143860000Y-83342783D01*
X143860000Y-83237216D01*
X143863427Y-83228943D01*
X143870673Y-83225561D01*
X143966669Y-83217121D01*
X144038630Y-83191667D01*
X144097690Y-83154154D01*
X144165350Y-83108806D01*
X144165972Y-83108442D01*
X144253126Y-83064657D01*
X144262056Y-83064006D01*
X144268832Y-83069861D01*
G37*
%TD.AperFunction*%
%TD*%
%TA.AperFunction,Conductor*%
%TO.N,/TX*%
G36*
X142218536Y-87522005D02*
G01*
X142221963Y-87530278D01*
X142221951Y-87530803D01*
X142217107Y-87638681D01*
X142216905Y-87640382D01*
X142200863Y-87723168D01*
X142200286Y-87725170D01*
X142173206Y-87795036D01*
X142173016Y-87795472D01*
X142134262Y-87875452D01*
X142088563Y-87977159D01*
X142082047Y-87983301D01*
X142073454Y-87983190D01*
X141857472Y-87894662D01*
X141851116Y-87888353D01*
X141851093Y-87888297D01*
X141762495Y-87673475D01*
X141762508Y-87664522D01*
X141768850Y-87658200D01*
X141770569Y-87657641D01*
X141856413Y-87636970D01*
X141858707Y-87636654D01*
X141949557Y-87633271D01*
X142025262Y-87627689D01*
X142076596Y-87597081D01*
X142093342Y-87527538D01*
X142098611Y-87520298D01*
X142104717Y-87518578D01*
X142210263Y-87518578D01*
X142218536Y-87522005D01*
G37*
%TD.AperFunction*%
%TD*%
%TA.AperFunction,Conductor*%
%TO.N,/RX*%
G36*
X144278832Y-82319861D02*
G01*
X144279170Y-82320596D01*
X144369109Y-82535483D01*
X144369142Y-82544438D01*
X144369109Y-82544517D01*
X144279170Y-82759403D01*
X144272814Y-82765712D01*
X144263860Y-82765679D01*
X144263125Y-82765341D01*
X144175981Y-82721561D01*
X144175350Y-82721192D01*
X144107690Y-82675845D01*
X144048633Y-82638333D01*
X144048627Y-82638330D01*
X143976671Y-82612877D01*
X143880675Y-82604438D01*
X143872734Y-82600300D01*
X143870000Y-82592783D01*
X143870000Y-82487216D01*
X143873427Y-82478943D01*
X143880673Y-82475561D01*
X143976669Y-82467121D01*
X144048630Y-82441667D01*
X144107690Y-82404154D01*
X144175350Y-82358806D01*
X144175972Y-82358442D01*
X144263126Y-82314657D01*
X144272056Y-82314006D01*
X144278832Y-82319861D01*
G37*
%TD.AperFunction*%
%TD*%
%TA.AperFunction,Conductor*%
%TO.N,/RX*%
G36*
X141401056Y-86658427D02*
G01*
X141404438Y-86665675D01*
X141412877Y-86761671D01*
X141438330Y-86833627D01*
X141438333Y-86833633D01*
X141475845Y-86892690D01*
X141521192Y-86960350D01*
X141521561Y-86960981D01*
X141565341Y-87048125D01*
X141565993Y-87057056D01*
X141560138Y-87063832D01*
X141559403Y-87064170D01*
X141344517Y-87154109D01*
X141335563Y-87154142D01*
X141335483Y-87154109D01*
X141120596Y-87064170D01*
X141114287Y-87057815D01*
X141114320Y-87048860D01*
X141114651Y-87048139D01*
X141158442Y-86960972D01*
X141158806Y-86960350D01*
X141171049Y-86942081D01*
X141204154Y-86892690D01*
X141241667Y-86833630D01*
X141267121Y-86761669D01*
X141275561Y-86665674D01*
X141279699Y-86657734D01*
X141287216Y-86655000D01*
X141392783Y-86655000D01*
X141401056Y-86658427D01*
G37*
%TD.AperFunction*%
%TD*%
%TA.AperFunction,Conductor*%
%TO.N,+BATT*%
G36*
X157630178Y-100387490D02*
G01*
X158018308Y-100691588D01*
X158022707Y-100699388D01*
X158020874Y-100707217D01*
X157509782Y-101486092D01*
X157502378Y-101491129D01*
X157493581Y-101489455D01*
X157490218Y-101486092D01*
X156979125Y-100707217D01*
X156977451Y-100698420D01*
X156981691Y-100691588D01*
X157369822Y-100387490D01*
X157377038Y-100385000D01*
X157622962Y-100385000D01*
X157630178Y-100387490D01*
G37*
%TD.AperFunction*%
%TD*%
%TA.AperFunction,Conductor*%
%TO.N,+BATT*%
G36*
X149570054Y-98448602D02*
G01*
X149576363Y-98454958D01*
X149576330Y-98463912D01*
X149576278Y-98464034D01*
X149539482Y-98549236D01*
X149509865Y-98618683D01*
X149509861Y-98618692D01*
X149490590Y-98680541D01*
X149480144Y-98753804D01*
X149480144Y-98753805D01*
X149477344Y-98846155D01*
X149473668Y-98854320D01*
X149465649Y-98857500D01*
X149234351Y-98857500D01*
X149226078Y-98854073D01*
X149222656Y-98846155D01*
X149222419Y-98838344D01*
X149219855Y-98753806D01*
X149209408Y-98680541D01*
X149190136Y-98618689D01*
X149160517Y-98549236D01*
X149123720Y-98464033D01*
X149123587Y-98455080D01*
X149129823Y-98448654D01*
X149129867Y-98448635D01*
X149345484Y-98358389D01*
X149354437Y-98358357D01*
X149570054Y-98448602D01*
G37*
%TD.AperFunction*%
%TD*%
M02*
